<?xml version="1.0" encoding="UTF-8"?>
<!-- Generated by Pixelmator Pro 3.7.1 -->
<svg width="1689" height="1248" viewBox="0 0 1689 1248" xmlns="http://www.w3.org/2000/svg">
    <clipPath id="clipPath1">
        <path d="M 120 120 L 1569 120 L 1569 1128 L 120 1128 Z"/>
    </clipPath>
    <g id="g1" clip-path="url(#clipPath1)">
        <path id="Container" fill="#000000" stroke="none" d="M 120 120 L 1569 120 L 1569 1128 L 120 1128 Z"/>
        <g id="g2">
            <path id="Ellipse-26" fill="#9b3393" stroke="none" d="M 1977.645996 2338.9104 C 1767.772339 2702.421875 1491.832642 3007.938965 1210.530396 3188.250977 C 929.22821 3368.563232 665.606262 3408.899902 477.658447 3300.388184 C 289.710602 3191.876465 192.832565 2943.404785 208.336426 2609.633789 C 223.840286 2275.862793 350.456055 1884.133545 560.32959 1520.62207 C 770.203247 1157.110474 1046.142944 851.593567 1327.44519 671.281494 C 1608.747437 490.969421 1872.369385 450.632446 2060.317139 559.144165 C 2248.265137 667.655945 2345.143066 916.127808 2329.63916 1249.898682 C 2314.135254 1583.669678 2187.519775 1975.398926 1977.645996 2338.9104 Z"/>
        </g>
        <g id="g3">
            <path id="Ellipse-25" fill="#153843" stroke="none" d="M 561.645081 1357.9104 C 351.771515 1721.421875 75.831749 2026.938965 -205.470505 2207.250977 C -486.772705 2387.562988 -750.394653 2427.899902 -938.342468 2319.388184 C -1126.290405 2210.876465 -1223.168335 1962.404785 -1207.664551 1628.633789 C -1192.160645 1294.862793 -1065.5448 903.133545 -855.671265 539.622009 C -645.797668 176.110474 -369.858002 -129.406494 -88.555733 -309.718506 C 192.74649 -490.030518 456.368439 -530.367554 644.316284 -421.855713 C 832.264038 -313.343994 929.142151 -64.872192 913.638245 268.898743 C 898.134399 602.669617 771.518616 994.398804 561.645081 1357.9104 Z"/>
        </g>
        <path id="Leave-a-review" fill="#ffffff" stroke="none" d="M 247.727997 960.300049 C 247.727997 944.198975 251.132111 931.871948 257.940002 923.31604 C 264.747894 914.666992 274.454102 910.343994 287.057983 910.343994 C 293.865906 910.343994 299.753998 911.540955 304.721985 913.932007 C 309.690002 916.322998 313.785004 919.727966 317.003998 924.144043 C 320.31601 928.467041 322.755005 933.710999 324.318024 939.875977 C 325.881012 945.947998 326.664001 952.755005 326.664001 960.300049 C 326.664001 976.401001 323.213989 988.77301 316.314026 997.421997 C 309.506989 1005.977966 299.753998 1010.256042 287.057983 1010.256042 C 280.341919 1010.256042 274.5 1009.05896 269.532013 1006.667969 C 264.656097 1004.276978 260.561981 1000.916992 257.25 996.593994 C 254.03009 992.17804 251.637909 986.93396 250.074005 980.862061 C 248.510101 974.69696 247.727997 967.844971 247.727997 960.300049 Z M 259.872009 960.300049 C 259.872009 965.636963 260.378113 970.695007 261.389984 975.47998 C 262.494019 980.265015 264.150024 984.494995 266.358002 988.176025 C 268.56601 991.764038 271.371887 994.661987 274.776001 996.869995 C 278.271912 998.984985 282.365997 1000.043945 287.057983 1000.043945 C 295.614014 1000.043945 302.330994 996.824951 307.205994 990.383972 C 312.080994 983.852966 314.519989 973.823975 314.519989 960.300049 C 314.519989 955.055969 313.967987 950.042969 312.864014 945.257996 C 311.852997 940.382996 310.197021 936.149963 307.896027 932.562012 C 305.688019 928.881042 302.834991 925.983032 299.339996 923.867981 C 295.935913 921.660034 291.842102 920.555969 287.057983 920.555969 C 278.594116 920.555969 271.923889 923.822998 267.048004 930.354004 C 262.263916 936.795044 259.872009 946.776001 259.872009 960.300049 Z M 407.889008 1004.598022 C 405.128998 1006.713013 401.634033 1008.186035 397.401001 1009.014038 C 393.171021 1009.842041 388.662018 1010.256042 383.877014 1010.256042 C 378.080994 1010.256042 372.654022 1009.289978 367.592987 1007.358032 C 362.535004 1005.333008 358.119019 1002.296997 354.345001 998.25 C 350.574005 994.203003 347.583008 989.049072 345.375 982.793945 C 343.166992 976.445984 342.063019 968.948975 342.063019 960.300049 C 342.063019 951.285034 343.26001 943.647034 345.651001 937.391968 C 348.13501 931.043945 351.357025 925.893066 355.311005 921.936035 C 359.361023 917.889038 363.867004 914.942993 368.834991 913.104004 C 373.803009 911.265015 378.864014 910.343994 384.015015 910.343994 C 389.535004 910.343994 394.044037 910.664978 397.539001 911.309937 C 401.037018 911.862061 404.025024 912.64502 406.509033 913.656006 L 403.748993 923.72998 C 399.332977 921.61499 393.03302 920.555969 384.843018 920.555969 C 381.072021 920.555969 377.346008 921.245972 373.665009 922.625977 C 369.987 924.006042 366.674988 926.258972 363.729004 929.387939 C 360.878998 932.516968 358.578003 936.609009 356.82901 941.670044 C 355.083008 946.730957 354.207001 952.94104 354.207001 960.300049 C 354.207001 966.924072 355.035004 972.719971 356.69101 977.687988 C 358.346985 982.656006 360.602997 986.796021 363.453003 990.108032 C 366.399017 993.420044 369.800995 995.903931 373.665009 997.559937 C 377.622009 999.215942 381.900024 1000.043945 386.498993 1000.043945 C 390.639008 1000.043945 394.22699 999.630005 397.263031 998.802002 C 400.392029 997.973999 403.014008 996.914978 405.128998 995.628052 L 407.889008 1004.598022 Z M 485.664001 922.211975 L 455.580017 922.211975 L 455.580017 1008.600037 L 444.126038 1008.600037 L 444.126038 922.211975 L 414.042023 922.211975 L 414.042023 912 L 485.664001 912 L 485.664001 922.211975 Z M 536.48999 981.828003 L 500.886017 981.828003 L 491.226013 1008.600037 L 479.910004 1008.600037 L 516.480042 910.481934 L 521.723999 910.481934 L 558.432007 1008.600037 L 546.426025 1008.600037 L 536.48999 981.828003 Z M 504.612 971.891968 L 533.039978 971.891968 L 522.276001 942.497925 L 518.825989 927.869995 L 518.687988 927.869995 L 515.238037 942.773987 L 504.612 971.891968 Z M 629.496033 934.079956 C 629.496033 936.381042 629.127014 938.72699 628.392029 941.117981 C 627.653992 943.508972 626.550049 945.765015 625.080017 947.880005 C 623.606995 949.905029 621.720032 951.698975 619.421997 953.261963 C 617.121033 954.824951 614.406006 956.022034 611.279968 956.850037 L 611.279968 957.401978 C 614.039978 957.860962 616.661987 958.644043 619.145996 959.747925 C 621.720032 960.85199 623.976013 962.369995 625.90802 964.302002 C 627.840027 966.234009 629.403015 968.579956 630.599976 971.339966 C 631.794006 974.100037 632.394043 977.367004 632.394043 981.137939 C 632.394043 986.105957 631.335022 990.429016 629.220032 994.109985 C 627.195007 997.697998 624.480042 1000.640991 621.078003 1002.942017 C 617.765991 1005.242981 613.947021 1006.944031 609.623962 1008.047974 C 605.298035 1009.151978 600.882019 1009.703979 596.376038 1009.703979 C 594.809998 1009.703979 592.971008 1009.703979 590.856018 1009.703979 C 588.738037 1009.703979 586.529968 1009.610962 584.231995 1009.42804 C 581.93103 1009.335022 579.630005 1009.151978 577.332031 1008.875977 C 575.031006 1008.692993 573.005981 1008.368958 571.26001 1007.910034 L 571.26001 912.828003 C 574.661987 912.276001 578.619019 911.817017 583.128052 911.447998 C 587.634033 911.078979 592.557007 910.895996 597.894043 910.895996 C 601.481995 910.895996 605.11499 911.217041 608.796021 911.862061 C 612.567017 912.414001 615.972046 913.562988 619.007996 915.312012 C 622.044006 916.968018 624.528015 919.313965 626.460022 922.350037 C 628.481995 925.385986 629.496033 929.295044 629.496033 934.079956 Z M 597.480042 999.768066 C 600.423035 999.768066 603.276001 999.44696 606.036011 998.802002 C 608.796021 998.067017 611.231995 996.963013 613.349976 995.48999 C 615.465027 993.927002 617.121033 992.039978 618.317993 989.832031 C 619.605042 987.624023 620.25 985.002075 620.25 981.965942 C 620.25 978.195007 619.46698 975.159058 617.903992 972.858032 C 616.43103 970.557007 614.453979 968.762939 611.970032 967.476013 C 609.575989 966.188965 606.864014 965.312988 603.828003 964.854004 C 600.792053 964.39502 597.755981 964.164001 594.720032 964.164001 L 582.71405 964.164001 L 582.71405 998.802002 C 583.356018 998.984985 584.277039 999.122925 585.473999 999.215942 C 586.66803 999.30896 587.958008 999.398987 589.338013 999.492004 C 590.718018 999.585022 592.143005 999.675049 593.615967 999.768066 C 595.085999 999.768066 596.376038 999.768066 597.480042 999.768066 Z M 589.890015 954.504028 C 591.453003 954.504028 593.340027 954.459045 595.548035 954.366028 C 597.755981 954.27301 599.595032 954.13501 601.067993 953.952026 C 603.276001 953.217041 605.346008 952.340942 607.278015 951.329956 C 609.210022 950.226013 610.911011 948.984009 612.384033 947.604004 C 613.947021 946.131042 615.144043 944.475037 615.972046 942.635986 C 616.890015 940.703979 617.35199 938.633972 617.35199 936.426025 C 617.35199 933.390015 616.752014 930.906006 615.558044 928.973999 C 614.453979 926.948975 612.935974 925.340942 611.004028 924.144043 C 609.072021 922.94696 606.864014 922.118958 604.380005 921.660034 C 601.895996 921.108032 599.364014 920.832031 596.789978 920.832031 C 593.754028 920.832031 590.945984 920.925049 588.372009 921.108032 C 585.888 921.200928 584.001038 921.383972 582.71405 921.660034 L 582.71405 954.504028 L 589.890015 954.504028 Z M 710.912964 943.187988 L 711.740967 932.14801 L 711.189026 932.14801 L 705.255005 943.463989 L 658.611023 1008.600037 L 651.848999 1008.600037 L 651.848999 912 L 663.302979 912 L 663.302979 978.23999 L 662.337036 989.141968 L 662.888977 989.141968 L 668.960999 977.825928 L 715.605042 912 L 722.367004 912 L 722.367004 1008.600037 L 710.912964 1008.600037 L 710.912964 943.187988 Z M 808.157959 922.211975 L 778.074036 922.211975 L 778.074036 1008.600037 L 766.619995 1008.600037 L 766.619995 922.211975 L 736.536011 922.211975 L 736.536011 912 L 808.157959 912 L 808.157959 922.211975 Z M 822.327026 912 L 833.781006 912 L 833.781006 949.536011 C 834.242981 949.442993 835.02301 949.352966 836.127075 949.26001 C 837.231018 949.077026 838.42804 948.938965 839.715027 948.846069 C 841.005005 948.753052 842.336975 948.663025 843.717041 948.570007 C 845.097046 948.47699 846.33905 948.432007 847.442993 948.432007 C 851.859009 948.432007 856.137024 948.890991 860.277039 949.812012 C 864.510071 950.640015 868.235962 952.157959 871.454956 954.366028 C 874.766968 956.573975 877.437012 959.565063 879.459045 963.335999 C 881.484009 967.016968 882.495056 971.709045 882.495056 977.411987 C 882.495056 982.932007 881.528992 987.717041 879.597046 991.764038 C 877.664978 995.811035 874.997986 999.171021 871.593018 1001.838013 C 868.19104 1004.505005 864.188965 1006.484985 859.586975 1007.772034 C 855.081055 1009.05896 850.157959 1009.703979 844.820984 1009.703979 C 843.534058 1009.703979 841.971069 1009.659058 840.129028 1009.56604 C 838.289978 1009.56604 836.312988 1009.473022 834.195007 1009.289978 C 832.172974 1009.19696 830.102966 1009.014038 827.984985 1008.738037 C 825.963074 1008.461975 824.075989 1008.093018 822.327026 1007.633972 L 822.327026 912 Z M 846.33905 999.768066 C 849.651062 999.768066 852.734985 999.354004 855.585022 998.526001 C 858.531006 997.60498 861.105042 996.27301 863.312988 994.523987 C 865.520996 992.684937 867.225037 990.429016 868.419006 987.761963 C 869.709045 985.002075 870.351013 981.828003 870.351013 978.23999 C 870.351013 974.375977 869.661011 971.156982 868.281006 968.579956 C 866.901062 966.003052 865.062012 963.980957 862.761047 962.507996 C 860.55304 960.945007 857.979065 959.885986 855.032959 959.334045 C 852.090027 958.688965 849.054016 958.367981 845.925049 958.367981 C 845.097046 958.367981 844.085999 958.413025 842.889038 958.506042 C 841.695007 958.598999 840.497986 958.688965 839.301025 958.781982 C 838.106995 958.875 837.003052 959.012939 835.989014 959.195984 C 834.977966 959.379028 834.242981 959.516968 833.781006 959.609985 L 833.781006 998.940063 C 835.070984 999.215942 836.910034 999.44696 839.301025 999.630005 C 841.695007 999.723022 844.040955 999.768066 846.33905 999.768066 Z M 926.409058 960.300049 C 926.409058 944.198975 929.811035 931.871948 936.621033 923.31604 C 943.42804 914.666992 953.132996 910.343994 965.739014 910.343994 C 972.546021 910.343994 978.434998 911.540955 983.403015 913.932007 C 988.371033 916.322998 992.463074 919.727966 995.684998 924.144043 C 998.997009 928.467041 1001.433044 933.710999 1002.999023 939.875977 C 1004.562012 945.947998 1005.344971 952.755005 1005.344971 960.300049 C 1005.344971 976.401001 1001.89502 988.77301 994.995056 997.421997 C 988.184998 1005.977966 978.434998 1010.256042 965.739014 1010.256042 C 959.022034 1010.256042 953.180969 1009.05896 948.213074 1006.667969 C 943.335022 1004.276978 939.242981 1000.916992 935.930969 996.593994 C 932.709045 992.17804 930.317993 986.93396 928.755005 980.862061 C 927.188965 974.69696 926.409058 967.844971 926.409058 960.300049 Z M 938.55304 960.300049 C 938.55304 965.636963 939.057068 970.695007 940.070984 975.47998 C 941.175049 980.265015 942.831055 984.494995 945.039001 988.176025 C 947.247009 991.764038 950.052002 994.661987 953.457031 996.869995 C 956.952026 998.984985 961.046997 1000.043945 965.739014 1000.043945 C 974.295044 1000.043945 981.008972 996.824951 985.887024 990.383972 C 990.762024 983.852966 993.200989 973.823975 993.200989 960.300049 C 993.200989 955.055969 992.648987 950.042969 991.545044 945.257996 C 990.531006 940.382996 988.875 936.149963 986.577026 932.562012 C 984.368958 928.881042 981.515991 925.983032 978.020996 923.867981 C 974.616028 921.660034 970.520996 920.555969 965.739014 920.555969 C 957.27301 920.555969 950.604065 923.822998 945.729065 930.354004 C 940.944031 936.795044 938.55304 946.776001 938.55304 960.300049 Z M 1080.519043 922.211975 L 1050.434937 922.211975 L 1050.434937 1008.600037 L 1038.980957 1008.600037 L 1038.980957 922.211975 L 1008.897034 922.211975 L 1008.897034 912 L 1080.519043 912 L 1080.519043 922.211975 Z M 1102.140015 962.921997 L 1102.140015 953.261963 L 1104.348022 953.261963 C 1105.176025 953.261963 1106.190063 953.261963 1107.384033 953.261963 C 1108.581055 953.261963 1109.777954 953.217041 1110.972046 953.124023 C 1112.261963 953.031006 1113.456055 952.985962 1114.559937 952.985962 C 1115.75708 952.893066 1116.723022 952.755005 1117.458008 952.57196 C 1119.852051 952.203003 1122.10498 951.605957 1124.219971 950.777954 C 1126.338013 949.856934 1128.177002 948.708008 1129.73999 947.328003 C 1131.30603 945.947998 1132.547974 944.336975 1133.465942 942.497925 C 1134.386963 940.659058 1134.846069 938.633972 1134.846069 936.426025 C 1134.846069 933.390015 1134.342041 930.860962 1133.328003 928.835999 C 1132.317017 926.811035 1130.891968 925.203003 1129.050049 924.006042 C 1127.304077 922.718994 1125.234009 921.843018 1122.839966 921.383972 C 1120.541992 920.832031 1118.057983 920.555969 1115.387939 920.555969 C 1110.420044 920.555969 1106.190063 920.925049 1102.692017 921.660034 C 1099.197021 922.304993 1096.391968 923.132996 1094.274048 924.144043 L 1091.238037 915.036011 C 1093.079956 914.024963 1096.391968 913.010986 1101.174072 912 C 1105.959106 910.895996 1111.340942 910.343994 1117.320068 910.343994 C 1121.000977 910.343994 1124.588989 910.757996 1128.084106 911.585999 C 1131.671997 912.320984 1134.846069 913.610962 1137.605957 915.449951 C 1140.459106 917.198975 1142.712036 919.63501 1144.368042 922.764038 C 1146.117065 925.800049 1146.98999 929.570984 1146.98999 934.079956 C 1146.98999 938.679016 1145.472046 943.094971 1142.436035 947.328003 C 1139.400024 951.468018 1134.846069 954.459045 1128.774048 956.297974 L 1128.774048 956.850037 C 1135.307983 957.770996 1140.459106 960.207031 1144.22998 964.164001 C 1148.004028 968.120972 1149.887939 973.410034 1149.887939 980.034058 C 1149.887939 985.277954 1148.832031 989.832031 1146.713989 993.695984 C 1144.692017 997.467041 1141.977051 1000.596069 1138.572021 1003.079956 C 1135.26001 1005.563965 1131.395996 1007.402954 1126.97998 1008.600037 C 1122.656982 1009.703979 1118.241089 1010.256042 1113.731934 1010.256042 C 1107.660034 1010.256042 1102.647095 1009.886963 1098.690063 1009.151978 C 1094.825928 1008.507019 1091.606934 1007.679016 1089.030029 1006.667969 L 1091.928101 996.317993 C 1094.046021 997.328979 1096.989014 998.204956 1100.76001 998.940063 C 1104.624023 999.675049 1109.270996 1000.043945 1114.697998 1000.043945 C 1117.551025 1000.043945 1120.355957 999.675049 1123.116089 998.940063 C 1125.875977 998.112061 1128.315063 996.914978 1130.430054 995.35199 C 1132.637939 993.695984 1134.386963 991.671021 1135.674072 989.280029 C 1137.054077 986.889038 1137.744019 984.036011 1137.744019 980.723999 C 1137.744019 974.92804 1135.722046 970.695007 1131.671997 968.027954 C 1127.625 965.268066 1122.33606 963.656982 1115.802002 963.197998 C 1114.697998 963.10498 1113.641968 963.059937 1112.628052 963.059937 C 1111.710083 962.967041 1110.744019 962.921997 1109.72998 962.921997 L 1102.140015 962.921997 Z M 1240.557007 912 L 1252.010986 912 L 1252.010986 1008.600037 L 1240.557007 1008.600037 L 1240.557007 912 Z M 1169.348999 912 L 1180.803101 912 L 1180.803101 949.536011 C 1181.261963 949.442993 1181.952026 949.352966 1182.872925 949.26001 C 1183.793945 949.077026 1184.805054 948.938965 1185.909058 948.846069 C 1187.012939 948.753052 1188.117065 948.663025 1189.221069 948.570007 C 1190.417969 948.47699 1191.567017 948.432007 1192.671021 948.432007 C 1196.994019 948.432007 1201.182007 948.890991 1205.229004 949.812012 C 1209.369019 950.640015 1213.002075 952.157959 1216.131104 954.366028 C 1219.26001 956.573975 1221.744019 959.565063 1223.583008 963.335999 C 1225.515015 967.016968 1226.480957 971.709045 1226.480957 977.411987 C 1226.480957 982.932007 1225.608032 987.761963 1223.859009 991.901978 C 1222.109985 995.948975 1219.625977 999.30896 1216.406982 1001.976013 C 1213.277954 1004.55304 1209.50708 1006.484985 1205.090942 1007.772034 C 1200.675049 1009.05896 1195.800049 1009.703979 1190.463013 1009.703979 C 1189.176025 1009.703979 1187.657959 1009.659058 1185.909058 1009.56604 C 1184.253052 1009.56604 1182.459106 1009.473022 1180.526978 1009.289978 C 1178.687988 1009.19696 1176.801025 1009.014038 1174.869019 1008.738037 C 1172.937012 1008.461975 1171.098022 1008.093018 1169.348999 1007.633972 L 1169.348999 912 Z M 1191.429077 999.768066 C 1198.053101 999.768066 1203.527954 997.973999 1207.851074 994.385986 C 1212.174072 990.797974 1214.337036 985.415955 1214.337036 978.23999 C 1214.337036 974.375977 1213.692017 971.156982 1212.405029 968.579956 C 1211.118042 966.003052 1209.369019 963.980957 1207.161011 962.507996 C 1205.046021 960.945007 1202.562012 959.885986 1199.709106 959.334045 C 1196.948975 958.688965 1194.006104 958.367981 1190.877075 958.367981 C 1189.221069 958.367981 1187.38208 958.506042 1185.356934 958.781982 C 1183.332031 959.057983 1181.813965 959.334045 1180.803101 959.609985 L 1180.803101 998.940063 C 1183.286987 999.492004 1186.829956 999.768066 1191.429077 999.768066 Z M 1333.647095 934.079956 C 1333.647095 936.381042 1333.277954 938.72699 1332.542969 941.117981 C 1331.805054 943.508972 1330.700928 945.765015 1329.230957 947.880005 C 1327.758057 949.905029 1325.870972 951.698975 1323.572998 953.261963 C 1321.272095 954.824951 1318.557007 956.022034 1315.43103 956.850037 L 1315.43103 957.401978 C 1318.19104 957.860962 1320.812988 958.644043 1323.296997 959.747925 C 1325.870972 960.85199 1328.127075 962.369995 1330.05896 964.302002 C 1331.991089 966.234009 1333.554077 968.579956 1334.750977 971.339966 C 1335.945068 974.100037 1336.545044 977.367004 1336.545044 981.137939 C 1336.545044 986.105957 1335.485962 990.429016 1333.370972 994.109985 C 1331.346069 997.697998 1328.631104 1000.640991 1325.229004 1002.942017 C 1321.916992 1005.242981 1318.098022 1006.944031 1313.775024 1008.047974 C 1309.448975 1009.151978 1305.032959 1009.703979 1300.526978 1009.703979 C 1298.96106 1009.703979 1297.121948 1009.703979 1295.00708 1009.703979 C 1292.889038 1009.703979 1290.68103 1009.610962 1288.383057 1009.42804 C 1286.082031 1009.335022 1283.781006 1009.151978 1281.483032 1008.875977 C 1279.182007 1008.692993 1277.156982 1008.368958 1275.411011 1007.910034 L 1275.411011 912.828003 C 1278.812988 912.276001 1282.77002 911.817017 1287.278931 911.447998 C 1291.785034 911.078979 1296.708008 910.895996 1302.045044 910.895996 C 1305.633057 910.895996 1309.265991 911.217041 1312.947021 911.862061 C 1316.718018 912.414001 1320.122925 913.562988 1323.159058 915.312012 C 1326.195068 916.968018 1328.679077 919.313965 1330.610962 922.350037 C 1332.633057 925.385986 1333.647095 929.295044 1333.647095 934.079956 Z M 1301.631104 999.768066 C 1304.573975 999.768066 1307.427002 999.44696 1310.187012 998.802002 C 1312.947021 998.067017 1315.383057 996.963013 1317.500977 995.48999 C 1319.616089 993.927002 1321.272095 992.039978 1322.468994 989.832031 C 1323.756104 987.624023 1324.401001 985.002075 1324.401001 981.965942 C 1324.401001 978.195007 1323.618042 975.159058 1322.055054 972.858032 C 1320.582031 970.557007 1318.60498 968.762939 1316.120972 967.476013 C 1313.727051 966.188965 1311.015015 965.312988 1307.979004 964.854004 C 1304.942993 964.39502 1301.906982 964.164001 1298.870972 964.164001 L 1286.86499 964.164001 L 1286.86499 998.802002 C 1287.50708 998.984985 1288.428101 999.122925 1289.625 999.215942 C 1290.819092 999.30896 1292.109009 999.398987 1293.489014 999.492004 C 1294.869019 999.585022 1296.293945 999.675049 1297.766968 999.768066 C 1299.237061 999.768066 1300.526978 999.768066 1301.631104 999.768066 Z M 1294.041016 954.504028 C 1295.604004 954.504028 1297.491089 954.459045 1299.698975 954.366028 C 1301.906982 954.27301 1303.745972 954.13501 1305.218994 953.952026 C 1307.427002 953.217041 1309.496948 952.340942 1311.429077 951.329956 C 1313.360962 950.226013 1315.062012 948.984009 1316.535034 947.604004 C 1318.098022 946.131042 1319.295044 944.475037 1320.122925 942.635986 C 1321.041016 940.703979 1321.503052 938.633972 1321.503052 936.426025 C 1321.503052 933.390015 1320.902954 930.906006 1319.709106 928.973999 C 1318.60498 926.948975 1317.087036 925.340942 1315.155029 924.144043 C 1313.223022 922.94696 1311.015015 922.118958 1308.531006 921.660034 C 1306.046997 921.108032 1303.515015 920.832031 1300.94104 920.832031 C 1297.905029 920.832031 1295.097046 920.925049 1292.523071 921.108032 C 1290.039063 921.200928 1288.151978 921.383972 1286.86499 921.660034 L 1286.86499 954.504028 L 1294.041016 954.504028 Z"/>
        <path id="Vector" fill="#ffffff" fill-rule="evenodd" stroke="none" d="M 430.983002 752.14801 C 435.869995 742.052979 438.267029 730.940979 437.976013 719.736023 C 437.685028 708.531006 434.714996 697.557007 429.315002 687.726013 C 423.912018 677.894958 416.232025 669.488953 406.914001 663.210022 C 397.596008 656.927979 386.906982 652.953003 375.738007 651.612 C 372.021027 643.005005 366.618011 635.220032 359.843994 628.718994 C 353.070007 622.214966 345.059998 617.123962 336.287994 613.742981 C 327.513 610.362 318.153015 608.76001 308.748016 609.029968 C 299.345703 609.296997 290.091003 611.432983 281.526611 615.30896 C 272.962189 619.184998 265.260284 624.726013 258.871826 631.60498 C 252.483307 638.484009 247.536606 646.562988 244.321503 655.367981 C 241.1064 664.175964 239.687698 673.53302 240.147903 682.893005 C 240.608398 692.252991 242.938797 701.429993 247.002899 709.880981 L 240.576599 731.640015 C 239.858093 734.066956 239.810104 736.644043 240.437698 739.098022 C 241.065018 741.552002 242.344803 743.792969 244.142395 745.583984 C 245.939697 747.375 248.188507 748.650024 250.651794 749.273987 C 253.115097 749.901001 255.702011 749.853027 258.140411 749.135986 L 279.982208 742.734009 C 286.995605 746.091003 294.514496 748.277954 302.238007 749.208008 C 305.990997 757.968018 311.490021 765.879028 318.399017 772.460999 C 325.307983 779.046021 333.486023 784.164001 342.434998 787.508972 C 351.386993 790.856934 360.927002 792.359985 370.479004 791.92804 C 380.028015 791.495972 389.394012 789.140991 398.003998 785.000977 L 419.847015 791.402954 C 422.28302 792.119995 424.869019 792.167969 427.332001 791.540955 C 429.792023 790.916992 432.042023 789.641968 433.83902 787.854004 C 435.636017 786.062988 436.914001 783.824951 437.544037 781.374023 C 438.171021 778.920044 438.126038 776.343018 437.408997 773.915955 L 430.983002 752.14801 Z M 280.6539 728.142029 C 279.977997 728.144958 279.306 728.240967 278.656189 728.424011 L 254.136002 735.627014 L 261.35791 711.182983 C 261.87149 709.416016 261.671692 707.519958 260.800812 705.900024 C 254.4039 693.980957 252.519318 680.171997 255.489899 666.984009 C 258.460815 653.799011 266.089508 642.113953 276.985199 634.062012 C 287.88089 626.01001 301.317017 622.127991 314.846985 623.120972 C 328.377014 624.113953 341.096985 629.919006 350.69101 639.473999 C 360.282013 649.031982 366.108002 661.703979 367.107025 675.182983 C 368.102997 688.658997 364.205994 702.048035 356.123993 712.901978 C 348.041992 723.755981 336.311981 731.35498 323.076019 734.315979 C 309.839996 737.273987 295.976105 735.395996 284.012695 729.023987 C 282.984009 728.45697 281.82959 728.153992 280.6539 728.142029 Z M 416.59201 753.44104 L 423.84903 777.897034 L 399.312012 770.703003 C 397.539001 770.190063 395.636993 770.387939 394.007996 771.255005 C 380.988007 778.182007 365.763 779.769043 351.584991 775.677002 C 337.407013 771.585022 325.391998 762.138 318.105011 749.348999 C 327.789001 748.341003 337.15802 745.353027 345.623993 740.567993 C 354.092987 735.78302 361.475983 729.30896 367.314026 721.544983 C 373.152008 713.783997 377.31601 704.906982 379.545013 695.466003 C 381.774017 686.025024 382.02301 676.22699 380.271027 666.687012 C 388.707001 668.669983 396.576019 672.554993 403.263031 678.044983 C 409.953003 683.534973 415.287018 690.482971 418.854004 698.35199 C 422.421021 706.221008 424.121979 714.804016 423.834015 723.432007 C 423.542999 732.062988 421.263031 740.510986 417.177032 748.125 C 416.295013 749.754028 416.097015 751.664978 416.619019 753.44104 L 416.59201 753.44104 Z"/>
        <g id="Arrow-Medium">
            <path id="path1" fill="none" stroke="none" d="M 1437 156 L 1533 156 L 1533 252 L 1437 252 Z"/>
            <path id="Vector-4" fill="none" stroke="#ffffff" stroke-width="9" d="M 1440 162 L 1527 162 L 1527 249 M 1527 162 L 1440 249"/>
        </g>
    </g>
</svg>
