<?xml version="1.0" encoding="UTF-8"?>
<!-- Generated by Pixelmator Pro 3.7.1 -->
<svg width="1692" height="1248" viewBox="0 0 1692 1248" xmlns="http://www.w3.org/2000/svg">
    <clipPath id="clipPath1">
        <path d="M 120 120 L 1572 120 L 1572 1128 L 120 1128 Z"/>
    </clipPath>
    <g id="g1" clip-path="url(#clipPath1)">
        <path id="Container" fill="#000000" stroke="none" d="M 120 120 L 1572 120 L 1572 1128 L 120 1128 Z"/>
        <g id="g2">
            <path id="Ellipse-25" fill="#153843" stroke="none" d="M 2088.645996 1357.9104 C 1878.772339 1721.421875 1602.832642 2026.938965 1321.530396 2207.250977 C 1040.228271 2387.562988 776.606262 2427.899902 588.658447 2319.388184 C 400.710632 2210.876465 303.83255 1962.404785 319.336426 1628.633789 C 334.840271 1294.862793 461.456055 903.133545 671.32959 539.622009 C 881.203247 176.110474 1157.142944 -129.406494 1438.44519 -309.718506 C 1719.747437 -490.030518 1983.369385 -530.367554 2171.317139 -421.855713 C 2359.265137 -313.343994 2456.143066 -64.872192 2440.63916 268.898743 C 2425.135254 602.669617 2298.519775 994.398804 2088.645996 1357.9104 Z"/>
        </g>
        <path id="Ask-a-Question" fill="#ffffff" stroke="none" d="M 259.182007 962.921997 L 259.182007 953.261963 L 261.389984 953.261963 C 262.217987 953.261963 263.229919 953.261963 264.425995 953.261963 C 265.622101 953.261963 266.817902 953.217041 268.014008 953.124023 C 269.30191 953.031006 270.498016 952.985962 271.60199 952.985962 C 272.798096 952.893066 273.764099 952.755005 274.5 952.57196 C 276.891907 952.203003 279.146088 951.605957 281.261993 950.777954 C 283.377899 949.856934 285.218109 948.708008 286.782013 947.328003 C 288.345917 945.947998 289.587891 944.336975 290.507996 942.497925 C 291.428101 940.659058 291.888 938.633972 291.888 936.426025 C 291.888 933.390015 291.381897 930.860962 290.369995 928.835999 C 289.358093 926.811035 287.931915 925.203003 286.09201 924.006042 C 284.343903 922.718994 282.273895 921.843018 279.881989 921.383972 C 277.581909 920.832031 275.0979 920.555969 272.429993 920.555969 C 267.462006 920.555969 263.229919 920.925049 259.734009 921.660034 C 256.238098 922.304993 253.431915 923.132996 251.31601 924.144043 L 248.280014 915.036011 C 250.119904 914.024963 253.431915 913.010986 258.216003 912 C 263.000122 910.895996 268.382111 910.343994 274.362 910.343994 C 278.042114 910.343994 281.630096 910.757996 285.126007 911.585999 C 288.713989 912.320984 291.888 913.610962 294.64801 915.449951 C 297.500122 917.198975 299.753998 919.63501 301.410004 922.764038 C 303.158997 925.800049 304.032013 929.570984 304.032013 934.079956 C 304.032013 938.679016 302.514008 943.094971 299.477997 947.328003 C 296.442017 951.468018 291.888 954.459045 285.81601 956.297974 L 285.81601 956.850037 C 292.3479 957.770996 297.500122 960.207031 301.272003 964.164001 C 305.042999 968.120972 306.929993 973.410034 306.929993 980.034058 C 306.929993 985.277954 305.871002 989.832031 303.756012 993.695984 C 301.731018 997.467041 299.018097 1000.596069 295.614014 1003.079956 C 292.302002 1005.563965 288.438019 1007.402954 284.022003 1008.600037 C 279.69809 1009.703979 275.282104 1010.256042 270.774017 1010.256042 C 264.701996 1010.256042 259.68811 1009.886963 255.73201 1009.151978 C 251.868011 1008.507019 248.648102 1007.679016 246.072006 1006.667969 L 248.970001 996.317993 C 251.085892 997.328979 254.03009 998.204956 257.802002 998.940063 C 261.666016 999.675049 266.312103 1000.043945 271.740021 1000.043945 C 274.592102 1000.043945 277.39801 999.675049 280.15802 998.940063 C 282.917999 998.112061 285.35611 996.914978 287.471985 995.35199 C 289.679993 993.695984 291.428101 991.671021 292.716003 989.280029 C 294.096008 986.889038 294.786011 984.036011 294.786011 980.723999 C 294.786011 974.92804 292.761902 970.695007 288.713989 968.027954 C 284.666107 965.268066 279.375885 963.656982 272.843994 963.197998 C 271.740021 963.10498 270.681915 963.059937 269.670013 963.059937 C 268.749908 962.967041 267.783905 962.921997 266.772003 962.921997 L 259.182007 962.921997 Z M 372.345001 981.828003 L 336.740997 981.828003 L 327.080994 1008.600037 L 315.764984 1008.600037 L 352.334991 910.481934 L 357.57901 910.481934 L 394.287018 1008.600037 L 382.281006 1008.600037 L 372.345001 981.828003 Z M 340.46701 971.891968 L 368.894989 971.891968 L 358.131012 942.497925 L 354.681 927.869995 L 354.542999 927.869995 L 351.092987 942.773987 L 340.46701 971.891968 Z M 483.03302 1026.401978 L 475.167023 1026.401978 L 473.097015 1008.600037 L 405.33902 1008.600037 L 403.269012 1026.401978 L 395.265015 1026.401978 L 395.265015 998.387939 L 405.062988 998.387939 C 405.800995 997.377075 406.904999 995.031006 408.375 991.350037 C 409.94101 987.578979 411.459015 982.242004 412.929016 975.342041 C 414.494995 968.348999 415.875 959.655029 417.069 949.26001 C 418.265991 938.772034 418.863007 926.35199 418.863007 912 L 470.475006 912 L 470.475006 998.387939 L 483.03302 998.387939 L 483.03302 1026.401978 Z M 459.021027 998.387939 L 459.021027 922.211975 L 429.627014 922.211975 C 429.351013 932.331055 428.799011 941.438965 427.971008 949.536011 C 427.236023 957.632996 426.315002 964.80896 425.210999 971.063965 C 424.107025 977.229004 422.865021 982.562988 421.484985 987.07196 C 420.105011 991.581055 418.679993 995.35199 417.207001 998.387939 L 459.021027 998.387939 Z M 544.575012 981.828003 L 508.971008 981.828003 L 499.311005 1008.600037 L 487.994995 1008.600037 L 524.565002 910.481934 L 529.809021 910.481934 L 566.517029 1008.600037 L 554.511047 1008.600037 L 544.575012 981.828003 Z M 512.697021 971.891968 L 541.125 971.891968 L 530.361023 942.497925 L 526.911011 927.869995 L 526.77301 927.869995 L 523.322998 942.773987 L 512.697021 971.891968 Z M 632.421021 922.211975 L 602.337036 922.211975 L 602.337036 1008.600037 L 590.882996 1008.600037 L 590.882996 922.211975 L 560.799011 922.211975 L 560.799011 912 L 632.421021 912 L 632.421021 922.211975 Z M 646.593018 912 L 658.046997 912 L 658.046997 949.536011 C 658.505981 949.442993 659.289001 949.352966 660.393005 949.26001 C 661.497009 949.077026 662.69397 948.938965 663.981018 948.846069 C 665.268005 948.753052 666.603027 948.663025 667.982971 948.570007 C 669.363037 948.47699 670.605042 948.432007 671.708984 948.432007 C 676.125 948.432007 680.403015 948.890991 684.54303 949.812012 C 688.776001 950.640015 692.502014 952.157959 695.721008 954.366028 C 699.03302 956.573975 701.700012 959.565063 703.724976 963.335999 C 705.75 967.016968 706.761047 971.709045 706.761047 977.411987 C 706.761047 982.932007 705.794983 987.717041 703.863037 991.764038 C 701.93103 995.811035 699.263977 999.171021 695.859009 1001.838013 C 692.453979 1004.505005 688.451965 1006.484985 683.853027 1007.772034 C 679.343994 1009.05896 674.424011 1009.703979 669.087036 1009.703979 C 667.800049 1009.703979 666.234009 1009.659058 664.39502 1009.56604 C 662.55603 1009.56604 660.575989 1009.473022 658.460999 1009.289978 C 656.435974 1009.19696 654.365967 1009.014038 652.251038 1008.738037 C 650.226013 1008.461975 648.34198 1008.093018 646.593018 1007.633972 L 646.593018 912 Z M 670.605042 999.768066 C 673.917053 999.768066 676.997986 999.354004 679.851013 998.526001 C 682.794006 997.60498 685.371033 996.27301 687.578979 994.523987 C 689.786987 992.684937 691.488037 990.429016 692.684998 987.761963 C 693.972046 985.002075 694.617004 981.828003 694.617004 978.23999 C 694.617004 974.375977 693.927002 971.156982 692.546997 968.579956 C 691.167053 966.003052 689.328003 963.980957 687.027039 962.507996 C 684.81897 960.945007 682.242004 959.885986 679.299011 959.334045 C 676.356018 958.688965 673.320007 958.367981 670.19104 958.367981 C 669.363037 958.367981 668.35199 958.413025 667.154968 958.506042 C 665.958008 958.598999 664.763977 958.688965 663.567017 958.781982 C 662.369995 958.875 661.265991 959.012939 660.255005 959.195984 C 659.244019 959.379028 658.505981 959.516968 658.046997 959.609985 L 658.046997 998.940063 C 659.333984 999.215942 661.176025 999.44696 663.567017 999.630005 C 665.958008 999.723022 668.304016 999.768066 670.605042 999.768066 Z M 812.910034 934.079956 C 812.910034 936.381042 812.544006 938.72699 811.805969 941.117981 C 811.070984 943.508972 809.967041 945.765015 808.493958 947.880005 C 807.023987 949.905029 805.137024 951.698975 802.835999 953.261963 C 800.538025 954.824951 797.823059 956.022034 794.694031 956.850037 L 794.694031 957.401978 C 797.453979 957.860962 800.075989 958.644043 802.559998 959.747925 C 805.137024 960.85199 807.390015 962.369995 809.32196 964.302002 C 811.254028 966.234009 812.820007 968.579956 814.014038 971.339966 C 815.210999 974.100037 815.808044 977.367004 815.808044 981.137939 C 815.808044 986.105957 814.752075 990.429016 812.633972 994.109985 C 810.612061 997.697998 807.897034 1000.640991 804.492004 1002.942017 C 801.179993 1005.242981 797.364014 1006.944031 793.038025 1008.047974 C 788.715027 1009.151978 784.299072 1009.703979 779.789978 1009.703979 C 778.22699 1009.703979 776.388 1009.703979 774.27002 1009.703979 C 772.155029 1009.703979 769.94696 1009.610962 767.645996 1009.42804 C 765.348022 1009.335022 763.046997 1009.151978 760.746033 1008.875977 C 758.447998 1008.692993 756.423035 1008.368958 754.674011 1007.910034 L 754.674011 912.828003 C 758.078979 912.276001 762.036011 911.817017 766.542053 911.447998 C 771.051025 911.078979 775.973999 910.895996 781.308044 910.895996 C 784.895996 910.895996 788.531982 911.217041 792.210022 911.862061 C 795.984009 912.414001 799.386047 913.562988 802.421997 915.312012 C 805.458008 916.968018 807.942017 919.313965 809.874023 922.350037 C 811.898987 925.385986 812.910034 929.295044 812.910034 934.079956 Z M 780.894043 999.768066 C 783.840027 999.768066 786.690063 999.44696 789.450012 998.802002 C 792.210022 998.067017 794.648987 996.963013 796.764038 995.48999 C 798.882019 993.927002 800.538025 992.039978 801.731995 989.832031 C 803.022034 987.624023 803.664001 985.002075 803.664001 981.965942 C 803.664001 978.195007 802.883972 975.159058 801.317993 972.858032 C 799.848022 970.557007 797.867981 968.762939 795.383972 967.476013 C 792.992981 966.188965 790.278015 965.312988 787.242004 964.854004 C 784.206055 964.39502 781.170044 964.164001 778.133972 964.164001 L 766.128052 964.164001 L 766.128052 998.802002 C 766.77301 998.984985 767.69397 999.122925 768.888 999.215942 C 770.085022 999.30896 771.372009 999.398987 772.752075 999.492004 C 774.132019 999.585022 775.559998 999.675049 777.030029 999.768066 C 778.503052 999.768066 779.789978 999.768066 780.894043 999.768066 Z M 773.304016 954.504028 C 774.870056 954.504028 776.754028 954.459045 778.961975 954.366028 C 781.170044 954.27301 783.012024 954.13501 784.481995 953.952026 C 786.690063 953.217041 788.760071 952.340942 790.692017 951.329956 C 792.624023 950.226013 794.328003 948.984009 795.797974 947.604004 C 797.364014 946.131042 798.558044 944.475037 799.386047 942.635986 C 800.307068 940.703979 800.765991 938.633972 800.765991 936.426025 C 800.765991 933.390015 800.169006 930.906006 798.972046 928.973999 C 797.867981 926.948975 796.350037 925.340942 794.41803 924.144043 C 792.485962 922.94696 790.278015 922.118958 787.794006 921.660034 C 785.309998 921.108032 782.781006 920.832031 780.203979 920.832031 C 777.16803 920.832031 774.363037 920.925049 771.786011 921.108032 C 769.302002 921.200928 767.41803 921.383972 766.128052 921.660034 L 766.128052 954.504028 L 773.304016 954.504028 Z M 831.264038 960.300049 C 831.264038 944.198975 834.665955 931.871948 841.476013 923.31604 C 848.282959 914.666992 857.988037 910.343994 870.593994 910.343994 C 877.401062 910.343994 883.289978 911.540955 888.257996 913.932007 C 893.226013 916.322998 897.317993 919.727966 900.539978 924.144043 C 903.85199 928.467041 906.288025 933.710999 907.854065 939.875977 C 909.417053 945.947998 910.200012 952.755005 910.200012 960.300049 C 910.200012 976.401001 906.75 988.77301 899.850037 997.421997 C 893.039978 1005.977966 883.289978 1010.256042 870.593994 1010.256042 C 863.877075 1010.256042 858.036011 1009.05896 853.067993 1006.667969 C 848.190063 1004.276978 844.098022 1000.916992 840.786011 996.593994 C 837.563965 992.17804 835.172974 986.93396 833.609985 980.862061 C 832.044006 974.69696 831.264038 967.844971 831.264038 960.300049 Z M 843.407959 960.300049 C 843.407959 965.636963 843.911987 970.695007 844.926025 975.47998 C 846.030029 980.265015 847.686035 984.494995 849.894043 988.176025 C 852.10199 991.764038 854.906982 994.661987 858.312012 996.869995 C 861.807068 998.984985 865.902039 1000.043945 870.593994 1000.043945 C 879.149963 1000.043945 885.864014 996.824951 890.742004 990.383972 C 895.617004 983.852966 898.055969 973.823975 898.055969 960.300049 C 898.055969 955.055969 897.504028 950.042969 896.399963 945.257996 C 895.386047 940.382996 893.730042 936.149963 891.432068 932.562012 C 889.223999 928.881042 886.371033 925.983032 882.875977 923.867981 C 879.471069 921.660034 875.375977 920.555969 870.593994 920.555969 C 862.128052 920.555969 855.459045 923.822998 850.584045 930.354004 C 845.799072 936.795044 843.407959 946.776001 843.407959 960.300049 Z M 985.629028 922.211975 L 941.054993 922.211975 L 941.054993 1008.600037 L 929.601013 1008.600037 L 929.601013 912 L 997.083008 912 L 997.083008 1008.600037 L 985.629028 1008.600037 L 985.629028 922.211975 Z M 1020.567017 912.965942 C 1024.065063 912.137939 1027.83606 911.585999 1031.883057 911.309937 C 1035.932983 911.034058 1039.934937 910.895996 1043.889038 910.895996 C 1048.121948 910.895996 1052.400024 911.309937 1056.723022 912.137939 C 1061.139038 912.965942 1065.140991 914.484009 1068.729004 916.692017 C 1072.317017 918.899963 1075.214966 921.936035 1077.422974 925.800049 C 1079.723999 929.664001 1080.872925 934.586975 1080.872925 940.56604 C 1080.872925 946.454956 1079.817017 951.422974 1077.698975 955.469971 C 1075.584106 959.516968 1072.778931 962.828979 1069.281006 965.406006 C 1065.786011 967.890015 1061.784058 969.68396 1057.275024 970.788025 C 1052.769043 971.891968 1048.121948 972.444031 1043.337036 972.444031 C 1042.878052 972.444031 1042.094971 972.444031 1040.991089 972.444031 C 1039.97998 972.444031 1038.875977 972.444031 1037.679077 972.444031 C 1036.574951 972.351013 1035.471069 972.260986 1034.367065 972.167969 C 1033.262939 972.074951 1032.483032 971.984985 1032.020996 971.891968 L 1032.020996 1008.600037 L 1020.567017 1008.600037 L 1020.567017 912.965942 Z M 1044.165039 920.832031 C 1041.774048 920.832031 1039.473022 920.877075 1037.265015 920.969971 C 1035.057007 921.062988 1033.311035 921.290955 1032.020996 921.660034 L 1032.020996 961.679993 C 1032.483032 961.863037 1033.218018 962.000977 1034.229004 962.093994 C 1035.243042 962.093994 1036.299072 962.139038 1037.402954 962.231934 C 1038.50708 962.231934 1039.56604 962.231934 1040.577026 962.231934 C 1041.590942 962.231934 1042.325928 962.231934 1042.785034 962.231934 C 1045.914063 962.231934 1048.994995 961.956055 1052.031006 961.403931 C 1055.160034 960.758972 1057.964966 959.655029 1060.448975 958.092041 C 1062.932983 956.528931 1064.913086 954.320984 1066.383057 951.468018 C 1067.948975 948.61499 1068.729004 944.981934 1068.729004 940.56604 C 1068.729004 936.795044 1067.994019 933.665955 1066.520996 931.182007 C 1065.140991 928.60498 1063.25708 926.583008 1060.863037 925.109985 C 1058.565063 923.546997 1055.942993 922.442993 1052.996948 921.797974 C 1050.054077 921.152954 1047.110962 920.832031 1044.165039 920.832031 Z M 1091.360962 960.300049 C 1091.360962 944.198975 1094.765991 931.871948 1101.572998 923.31604 C 1108.380005 914.666992 1118.088013 910.343994 1130.69104 910.343994 C 1137.497925 910.343994 1143.386963 911.540955 1148.35498 913.932007 C 1153.322998 916.322998 1157.417969 919.727966 1160.636963 924.144043 C 1163.948975 928.467041 1166.387939 933.710999 1167.950928 939.875977 C 1169.514038 945.947998 1170.296997 952.755005 1170.296997 960.300049 C 1170.296997 976.401001 1166.847046 988.77301 1159.947021 997.421997 C 1153.140015 1005.977966 1143.386963 1010.256042 1130.69104 1010.256042 C 1123.973999 1010.256042 1118.133057 1009.05896 1113.165039 1006.667969 C 1108.290039 1004.276978 1104.195068 1000.916992 1100.883057 996.593994 C 1097.664063 992.17804 1095.27002 986.93396 1093.707031 980.862061 C 1092.144043 974.69696 1091.360962 967.844971 1091.360962 960.300049 Z M 1103.505005 960.300049 C 1103.505005 965.636963 1104.011963 970.695007 1105.023071 975.47998 C 1106.127075 980.265015 1107.782959 984.494995 1109.991089 988.176025 C 1112.198975 991.764038 1115.004028 994.661987 1118.409058 996.869995 C 1121.903931 998.984985 1125.999023 1000.043945 1130.69104 1000.043945 C 1139.246948 1000.043945 1145.963989 996.824951 1150.838989 990.383972 C 1155.713989 983.852966 1158.152954 973.823975 1158.152954 960.300049 C 1158.152954 955.055969 1157.601074 950.042969 1156.496948 945.257996 C 1155.485962 940.382996 1153.829956 936.149963 1151.528931 932.562012 C 1149.321045 928.881042 1146.468018 925.983032 1142.973022 923.867981 C 1139.567993 921.660034 1135.476074 920.555969 1130.69104 920.555969 C 1122.228027 920.555969 1115.55603 923.822998 1110.68103 930.354004 C 1105.895996 936.795044 1103.505005 946.776001 1103.505005 960.300049 Z M 1251.522095 1004.598022 C 1248.761963 1006.713013 1245.266968 1008.186035 1241.034058 1009.014038 C 1236.804077 1009.842041 1232.295044 1010.256042 1227.51001 1010.256042 C 1221.713989 1010.256042 1216.286987 1009.289978 1211.226074 1007.358032 C 1206.167969 1005.333008 1201.752075 1002.296997 1197.978027 998.25 C 1194.207031 994.203003 1191.215942 989.049072 1189.008057 982.793945 C 1186.800049 976.445984 1185.696045 968.948975 1185.696045 960.300049 C 1185.696045 951.285034 1186.893066 943.647034 1189.284058 937.391968 C 1191.768066 931.043945 1194.98999 925.893066 1198.944092 921.936035 C 1202.994019 917.889038 1207.5 914.942993 1212.468018 913.104004 C 1217.436035 911.265015 1222.496948 910.343994 1227.648071 910.343994 C 1233.167969 910.343994 1237.677002 910.664978 1241.171997 911.309937 C 1244.670044 911.862061 1247.657959 912.64502 1250.141968 913.656006 L 1247.38208 923.72998 C 1242.965942 921.61499 1236.666016 920.555969 1228.476074 920.555969 C 1224.704956 920.555969 1220.979004 921.245972 1217.297974 922.625977 C 1213.619995 924.006042 1210.307983 926.258972 1207.362061 929.387939 C 1204.511963 932.516968 1202.21106 936.609009 1200.462036 941.670044 C 1198.715942 946.730957 1197.839966 952.94104 1197.839966 960.300049 C 1197.839966 966.924072 1198.667969 972.719971 1200.323975 977.687988 C 1201.97998 982.656006 1204.235962 986.796021 1207.08606 990.108032 C 1210.031982 993.420044 1213.43396 995.903931 1217.297974 997.559937 C 1221.255005 999.215942 1225.532959 1000.043945 1230.13208 1000.043945 C 1234.272095 1000.043945 1237.859985 999.630005 1240.895996 998.802002 C 1244.025024 997.973999 1246.647095 996.914978 1248.761963 995.628052 L 1251.522095 1004.598022 Z"/>
        <path id="Vector" fill="#ffffff" fill-rule="evenodd" stroke="none" d="M 383.678986 636.635986 C 375.951019 628.869019 366.756012 622.695007 356.625 618.468018 C 346.494019 614.240967 335.625 612.041992 324.639008 612 L 324 612 C 301.721985 612 280.356018 620.804993 264.602997 636.47699 C 248.849991 652.148987 240 673.406982 240 695.570984 L 240 740.570984 C 240 745.685974 242.042404 750.591003 245.677505 754.208984 C 249.312912 757.823975 254.243408 759.857971 259.384521 759.857971 L 272.307617 759.857971 C 277.4487 759.857971 282.379211 757.823975 286.014618 754.208984 C 289.649689 750.591003 291.692108 745.685974 291.692108 740.570984 L 291.692108 708.429016 C 291.692108 703.314026 289.649689 698.408997 286.014618 694.791016 C 282.379211 691.176025 277.4487 689.142029 272.307617 689.142029 L 253.213806 689.142029 C 254.460007 675.738037 259.520386 662.96698 267.802521 652.320007 C 276.08429 641.676025 287.244598 633.599976 299.975098 629.039978 C 312.705017 624.47998 326.477997 623.625 339.681 626.573975 C 352.881012 629.52301 364.964996 636.156006 374.514008 645.692993 C 386.18399 657.363037 393.359985 672.740967 394.794037 689.142029 L 375.693024 689.142029 C 370.550995 689.142029 365.619019 691.176025 361.986023 694.791016 C 358.350006 698.408997 356.307007 703.314026 356.307007 708.429016 L 356.307007 740.570984 C 356.307007 745.685974 358.350006 750.591003 361.986023 754.208984 C 365.619019 757.823975 370.550995 759.857971 375.693024 759.857971 L 395.076019 759.857971 C 395.076019 764.973022 393.03302 769.878052 389.400024 773.492981 C 385.764008 777.110962 380.832001 779.141968 375.693024 779.141968 L 330.462006 779.141968 C 328.748993 779.141968 327.105011 779.820007 325.893005 781.026001 C 324.681 782.231934 324 783.867004 324 785.570984 C 324 787.274963 324.681 788.913025 325.893005 790.116028 C 327.105011 791.32196 328.748993 792 330.462006 792 L 375.693024 792 C 384.261017 792 392.478027 788.613037 398.537994 782.585999 C 404.595032 776.55896 408 768.381042 408 759.857971 L 408 695.570984 C 408.042023 684.638977 405.914978 673.80603 401.742004 663.692993 C 397.569 653.580017 391.43103 644.38501 383.678986 636.635986 Z M 272.307617 702 C 274.02121 702 275.664886 702.677979 276.876587 703.884033 C 278.088287 705.087036 278.768982 706.724976 278.768982 708.429016 L 278.768982 740.570984 C 278.768982 742.275024 278.088287 743.912964 276.876587 745.115967 C 275.664886 746.322021 274.02121 747 272.307617 747 L 259.384521 747 C 257.670898 747 256.027191 746.322021 254.815506 745.115967 C 253.603806 743.912964 252.923111 742.275024 252.923111 740.570984 L 252.923111 702 L 272.307617 702 Z M 375.693024 747 C 373.97699 747 372.335999 746.322021 371.123993 745.115967 C 369.912018 743.912964 369.231018 742.275024 369.231018 740.570984 L 369.231018 708.429016 C 369.231018 706.724976 369.912018 705.087036 371.123993 703.884033 C 372.335999 702.677979 373.97699 702 375.693024 702 L 395.076019 702 L 395.076019 747 L 375.693024 747 Z"/>
        <g id="Arrow-Medium">
            <path id="path1" fill="none" stroke="none" d="M 1419 156 L 1515 156 L 1515 252 L 1419 252 Z"/>
            <path id="Vector-4" fill="none" stroke="#ffffff" stroke-width="9" d="M 1422 162 L 1509 162 L 1509 249 M 1509 162 L 1422 249"/>
        </g>
    </g>
</svg>
