<?xml version="1.0" encoding="UTF-8"?>
<!-- Generated by Pixelmator Pro 3.7.1 -->
<svg width="1689" height="1248" viewBox="0 0 1689 1248" xmlns="http://www.w3.org/2000/svg">
    <clipPath id="clipPath1">
        <path d="M 120 120 L 1569 120 L 1569 1128 L 120 1128 Z"/>
		</clipPath>
    <g id="g1" clip-path="url(#clipPath1)">
        <path id="Container" fill="#000000" stroke="none" d="M 120 120 L 1569 120 L 1569 1128 L 120 1128 Z"/>
        <g id="g2">
            <path id="Ellipse-25" fill="#9b3393" stroke="none" d="M 1248.645996 -646.0896 C 1038.772461 -282.578003 762.832642 22.938965 481.530396 203.250977 C 200.22821 383.56311 -63.393745 423.900085 -251.341583 315.388306 C -439.289398 206.876465 -536.167419 -41.595337 -520.663574 -375.366211 C -505.15976 -709.137085 -378.543945 -1100.866455 -168.67038 -1464.37793 C 41.203236 -1827.889404 317.142914 -2133.406494 598.445129 -2313.718506 C 879.747437 -2494.030518 1143.369263 -2534.367432 1331.317139 -2425.855957 C 1519.265015 -2317.343994 1616.143066 -2068.87207 1600.63916 -1735.101318 C 1585.135254 -1401.330322 1458.519531 -1009.601318 1248.645996 -646.0896 Z"/>
        </g>
        <path id="Call-to-Action-Text" fill="#ffffff" stroke="none" d="M 259.181976 962.921997 L 259.181976 953.261963 L 261.389984 953.261963 C 262.217987 953.261963 263.229889 953.261963 264.425995 953.261963 C 265.622101 953.261963 266.817902 953.217041 268.013977 953.124023 C 269.30191 953.031006 270.497986 952.985962 271.60199 952.985962 C 272.798096 952.893066 273.764099 952.755005 274.5 952.57196 C 276.891907 952.203003 279.146088 951.605957 281.261993 950.777954 C 283.377899 949.856934 285.218109 948.708008 286.782013 947.328003 C 288.345917 945.947998 289.587891 944.336975 290.507996 942.497925 C 291.428101 940.659058 291.888 938.633972 291.888 936.426025 C 291.888 933.390015 291.381897 930.860962 290.369995 928.835999 C 289.358093 926.811035 287.931915 925.203003 286.09198 924.006042 C 284.343903 922.718994 282.273895 921.843018 279.881989 921.383972 C 277.581879 920.832031 275.0979 920.555969 272.429993 920.555969 C 267.462006 920.555969 263.229889 920.925049 259.734009 921.660034 C 256.238098 922.304993 253.4319 923.132996 251.31601 924.144043 L 248.279999 915.036011 C 250.119888 914.024963 253.4319 913.010986 258.216003 912 C 263.000092 910.895996 268.382111 910.343994 274.362 910.343994 C 278.042114 910.343994 281.630096 910.757996 285.126007 911.585999 C 288.713989 912.320984 291.888 913.610962 294.64801 915.449951 C 297.500092 917.198975 299.753998 919.63501 301.410004 922.764038 C 303.158997 925.800049 304.032013 929.570984 304.032013 934.079956 C 304.032013 938.679016 302.513977 943.094971 299.477997 947.328003 C 296.442017 951.468018 291.888 954.459045 285.81601 956.297974 L 285.81601 956.850037 C 292.3479 957.770996 297.500092 960.207031 301.272003 964.164001 C 305.042999 968.120972 306.929993 973.410034 306.929993 980.034058 C 306.929993 985.277954 305.871002 989.832031 303.755981 993.695984 C 301.731018 997.467041 299.018097 1000.596069 295.614014 1003.079956 C 292.302002 1005.563965 288.438019 1007.402954 284.022003 1008.600037 C 279.69809 1009.703979 275.282074 1010.256042 270.774017 1010.256042 C 264.701996 1010.256042 259.68808 1009.886963 255.73201 1009.151978 C 251.867996 1008.507019 248.648087 1007.679016 246.072006 1006.667969 L 248.969986 996.317993 C 251.085892 997.328979 254.03009 998.204956 257.802002 998.940063 C 261.665985 999.675049 266.312103 1000.043945 271.73999 1000.043945 C 274.592102 1000.043945 277.39801 999.675049 280.15799 998.940063 C 282.917999 998.112061 285.356079 996.914978 287.471985 995.35199 C 289.679993 993.695984 291.428101 991.671021 292.716003 989.280029 C 294.095978 986.889038 294.786011 984.036011 294.786011 980.723999 C 294.786011 974.92804 292.761902 970.695007 288.713989 968.027954 C 284.666107 965.268066 279.375885 963.656982 272.843994 963.197998 C 271.73999 963.10498 270.681915 963.059937 269.669983 963.059937 C 268.749878 962.967041 267.783905 962.921997 266.772003 962.921997 L 259.181976 962.921997 Z M 372.345001 981.828003 L 336.740997 981.828003 L 327.080994 1008.600037 L 315.764984 1008.600037 L 352.334991 910.481934 L 357.57901 910.481934 L 394.286987 1008.600037 L 382.281006 1008.600037 L 372.345001 981.828003 Z M 340.46698 971.891968 L 368.894989 971.891968 L 358.130981 942.497925 L 354.681 927.869995 L 354.542999 927.869995 L 351.092987 942.773987 L 340.46698 971.891968 Z M 425.054993 963.887939 L 418.56897 963.887939 L 418.56897 1008.600037 L 407.11499 1008.600037 L 407.11499 912 L 418.56897 912 L 418.56897 956.988037 L 424.778992 955.055969 L 457.208984 912 L 470.457001 912 L 438.164978 953.538025 L 432.368988 958.092041 L 439.406982 963.612061 L 474.734985 1008.600037 L 460.244965 1008.600037 L 425.054993 963.887939 Z M 537.296997 981.828003 L 501.692993 981.828003 L 492.03299 1008.600037 L 480.71698 1008.600037 L 517.286987 910.481934 L 522.531006 910.481934 L 559.238953 1008.600037 L 547.232971 1008.600037 L 537.296997 981.828003 Z M 505.419006 971.891968 L 533.846985 971.891968 L 523.082947 942.497925 L 519.632996 927.869995 L 519.494995 927.869995 L 516.044983 942.773987 L 505.419006 971.891968 Z M 579.518982 962.921997 L 579.518982 953.261963 L 581.72699 953.261963 C 582.554993 953.261963 583.56897 953.261963 584.763 953.261963 C 585.960022 953.261963 587.156982 953.217041 588.351013 953.124023 C 589.640991 953.031006 590.835022 952.985962 591.939026 952.985962 C 593.135986 952.893066 594.10199 952.755005 594.837036 952.57196 C 597.230957 952.203003 599.484009 951.605957 601.598999 950.777954 C 603.71698 949.856934 605.55603 948.708008 607.119019 947.328003 C 608.684998 945.947998 609.927002 944.336975 610.845032 942.497925 C 611.765991 940.659058 612.224976 938.633972 612.224976 936.426025 C 612.224976 933.390015 611.721008 930.860962 610.70697 928.835999 C 609.695984 926.811035 608.270996 925.203003 606.429016 924.006042 C 604.682983 922.718994 602.612976 921.843018 600.218994 921.383972 C 597.921021 920.832031 595.437012 920.555969 592.767029 920.555969 C 587.799011 920.555969 583.56897 920.925049 580.070984 921.660034 C 576.575989 922.304993 573.770996 923.132996 571.652954 924.144043 L 568.617004 915.036011 C 570.458984 914.024963 573.770996 913.010986 578.552979 912 C 583.338013 910.895996 588.720032 910.343994 594.698975 910.343994 C 598.380005 910.343994 601.968018 910.757996 605.463013 911.585999 C 609.050964 912.320984 612.224976 913.610962 614.984985 915.449951 C 617.838013 917.198975 620.091003 919.63501 621.746948 922.764038 C 623.495972 925.800049 624.369019 929.570984 624.369019 934.079956 C 624.369019 938.679016 622.851013 943.094971 619.815002 947.328003 C 616.778992 951.468018 612.224976 954.459045 606.152954 956.297974 L 606.152954 956.850037 C 612.687012 957.770996 617.838013 960.207031 621.609009 964.164001 C 625.382996 968.120972 627.267029 973.410034 627.267029 980.034058 C 627.267029 985.277954 626.210999 989.832031 624.093018 993.695984 C 622.070984 997.467041 619.355957 1000.596069 615.950989 1003.079956 C 612.638977 1005.563965 608.775024 1007.402954 604.359009 1008.600037 C 600.03595 1009.703979 595.619995 1010.256042 591.111023 1010.256042 C 585.039001 1010.256042 580.026001 1009.886963 576.06897 1009.151978 C 572.205017 1008.507019 568.986023 1007.679016 566.408997 1006.667969 L 569.307007 996.317993 C 571.424988 997.328979 574.367981 998.204956 578.138977 998.940063 C 582.002991 999.675049 586.650024 1000.043945 592.076965 1000.043945 C 594.929993 1000.043945 597.734985 999.675049 600.494995 998.940063 C 603.255005 998.112061 605.69397 996.914978 607.80896 995.35199 C 610.017029 993.695984 611.765991 991.671021 613.052979 989.280029 C 614.432983 986.889038 615.122986 984.036011 615.122986 980.723999 C 615.122986 974.92804 613.101013 970.695007 609.050964 968.027954 C 605.003967 965.268066 599.714966 963.656982 593.18103 963.197998 C 592.076965 963.10498 591.020996 963.059937 590.007019 963.059937 C 589.088989 962.967041 588.122986 962.921997 587.109009 962.921997 L 579.518982 962.921997 Z M 692.682007 981.828003 L 657.078003 981.828003 L 647.417969 1008.600037 L 636.10199 1008.600037 L 672.671997 910.481934 L 677.916016 910.481934 L 714.623962 1008.600037 L 702.617981 1008.600037 L 692.682007 981.828003 Z M 660.804016 971.891968 L 689.231995 971.891968 L 678.468018 942.497925 L 675.018005 927.869995 L 674.880005 927.869995 L 671.429993 942.773987 L 660.804016 971.891968 Z M 780.531006 922.211975 L 750.447021 922.211975 L 750.447021 1008.600037 L 738.992981 1008.600037 L 738.992981 922.211975 L 708.908997 922.211975 L 708.908997 912 L 780.531006 912 L 780.531006 922.211975 Z M 794.699951 912 L 806.153931 912 L 806.153931 949.536011 C 806.616028 949.442993 807.395935 949.352966 808.5 949.26001 C 809.604004 949.077026 810.800964 948.938965 812.088013 948.846069 C 813.377991 948.753052 814.710022 948.663025 816.089966 948.570007 C 817.469971 948.47699 818.711975 948.432007 819.815979 948.432007 C 824.231934 948.432007 828.51001 948.890991 832.649963 949.812012 C 836.882996 950.640015 840.609009 952.157959 843.828003 954.366028 C 847.140015 956.573975 849.809937 959.565063 851.83197 963.335999 C 853.856934 967.016968 854.867981 971.709045 854.867981 977.411987 C 854.867981 982.932007 853.901978 987.717041 851.969971 991.764038 C 850.038025 995.811035 847.370972 999.171021 843.965942 1001.838013 C 840.563965 1004.505005 836.562012 1006.484985 831.960022 1007.772034 C 827.453979 1009.05896 822.531006 1009.703979 817.194031 1009.703979 C 815.906982 1009.703979 814.343994 1009.659058 812.502014 1009.56604 C 810.663025 1009.56604 808.686035 1009.473022 806.567932 1009.289978 C 804.546021 1009.19696 802.476013 1009.014038 800.358032 1008.738037 C 798.335999 1008.461975 796.448975 1008.093018 794.699951 1007.633972 L 794.699951 912 Z M 818.711975 999.768066 C 822.023987 999.768066 825.108032 999.354004 827.957947 998.526001 C 830.903931 997.60498 833.477966 996.27301 835.686035 994.523987 C 837.893982 992.684937 839.597961 990.429016 840.791992 987.761963 C 842.08197 985.002075 842.723938 981.828003 842.723938 978.23999 C 842.723938 974.375977 842.033997 971.156982 840.653931 968.579956 C 839.273987 966.003052 837.434937 963.980957 835.133972 962.507996 C 832.925964 960.945007 830.35199 959.885986 827.406006 959.334045 C 824.463013 958.688965 821.426941 958.367981 818.297974 958.367981 C 817.469971 958.367981 816.459045 958.413025 815.261963 958.506042 C 814.067932 958.598999 812.870972 958.688965 811.674011 958.781982 C 810.47998 958.875 809.375977 959.012939 808.362 959.195984 C 807.351013 959.379028 806.616028 959.516968 806.153931 959.609985 L 806.153931 998.940063 C 807.444031 999.215942 809.282959 999.44696 811.674011 999.630005 C 814.067932 999.723022 816.414001 999.768066 818.711975 999.768066 Z M 910.235962 962.921997 L 910.235962 953.261963 L 912.444031 953.261963 C 913.272034 953.261963 914.282959 953.261963 915.47998 953.261963 C 916.674011 953.261963 917.870972 953.217041 919.067932 953.124023 C 920.35498 953.031006 921.551941 952.985962 922.656006 952.985962 C 923.850037 952.893066 924.815979 952.755005 925.554016 952.57196 C 927.945007 952.203003 930.197998 951.605957 932.315979 950.777954 C 934.430969 949.856934 936.269958 948.708008 937.835999 947.328003 C 939.398987 945.947998 940.640991 944.336975 941.562012 942.497925 C 942.47998 940.659058 942.941956 938.633972 942.941956 936.426025 C 942.941956 933.390015 942.434937 930.860962 941.424011 928.835999 C 940.409973 926.811035 938.984985 925.203003 937.145935 924.006042 C 935.397034 922.718994 933.327026 921.843018 930.936035 921.383972 C 928.63501 920.832031 926.151001 920.555969 923.484009 920.555969 C 918.515991 920.555969 914.282959 920.925049 910.788025 921.660034 C 907.289978 922.304993 904.484985 923.132996 902.369995 924.144043 L 899.334045 915.036011 C 901.172974 914.024963 904.484985 913.010986 909.269958 912 C 914.051941 910.895996 919.43396 910.343994 925.415955 910.343994 C 929.093994 910.343994 932.682007 910.757996 936.179993 911.585999 C 939.768005 912.320984 942.941956 913.610962 945.702026 915.449951 C 948.551941 917.198975 950.807983 919.63501 952.463989 922.764038 C 954.210022 925.800049 955.085999 929.570984 955.085999 934.079956 C 955.085999 938.679016 953.567932 943.094971 950.531982 947.328003 C 947.495972 951.468018 942.941956 954.459045 936.869995 956.297974 L 936.869995 956.850037 C 943.401001 957.770996 948.551941 960.207031 952.325928 964.164001 C 956.096985 968.120972 957.984009 973.410034 957.984009 980.034058 C 957.984009 985.277954 956.924988 989.832031 954.809937 993.695984 C 952.784973 997.467041 950.070007 1000.596069 946.667969 1003.079956 C 943.355957 1005.563965 939.492004 1007.402954 935.075928 1008.600037 C 930.75 1009.703979 926.334045 1010.256042 921.828003 1010.256042 C 915.756042 1010.256042 910.739929 1009.886963 906.78595 1009.151978 C 902.921997 1008.507019 899.699951 1007.679016 897.125977 1006.667969 L 900.023987 996.317993 C 902.139038 997.328979 905.08197 998.204956 908.855957 998.940063 C 912.719971 999.675049 917.363953 1000.043945 922.793945 1000.043945 C 925.643982 1000.043945 928.452026 999.675049 931.211975 998.940063 C 933.971985 998.112061 936.407959 996.914978 938.526001 995.35199 C 940.734009 993.695984 942.47998 991.671021 943.769958 989.280029 C 945.149963 986.889038 945.839966 984.036011 945.839966 980.723999 C 945.839966 974.92804 943.815002 970.695007 939.768005 968.027954 C 935.718018 965.268066 930.429016 963.656982 923.89801 963.197998 C 922.793945 963.10498 921.734985 963.059937 920.723938 963.059937 C 919.80304 962.967041 918.836975 962.921997 917.825928 962.921997 L 910.235962 962.921997 Z M 1035.677979 934.079956 C 1035.677979 936.381042 1035.312012 938.72699 1034.573975 941.117981 C 1033.838989 943.508972 1032.734985 945.765015 1031.261963 947.880005 C 1029.791992 949.905029 1027.905029 951.698975 1025.604004 953.261963 C 1023.305969 954.824951 1020.590942 956.022034 1017.461975 956.850037 L 1017.461975 957.401978 C 1020.221985 957.860962 1022.843994 958.644043 1025.328003 959.747925 C 1027.905029 960.85199 1030.157959 962.369995 1032.089966 964.302002 C 1034.021973 966.234009 1035.588013 968.579956 1036.781982 971.339966 C 1037.979004 974.100037 1038.575928 977.367004 1038.575928 981.137939 C 1038.575928 986.105957 1037.52002 990.429016 1035.401978 994.109985 C 1033.380005 997.697998 1030.664917 1000.640991 1027.26001 1002.942017 C 1023.947998 1005.242981 1020.132019 1006.944031 1015.805969 1008.047974 C 1011.483032 1009.151978 1007.066956 1009.703979 1002.557983 1009.703979 C 1000.994995 1009.703979 999.156006 1009.703979 997.038025 1009.703979 C 994.922974 1009.703979 992.714966 1009.610962 990.414001 1009.42804 C 988.116028 1009.335022 985.815002 1009.151978 983.514038 1008.875977 C 981.215942 1008.692993 979.190979 1008.368958 977.441956 1007.910034 L 977.441956 912.828003 C 980.846985 912.276001 984.804016 911.817017 989.309937 911.447998 C 993.819031 911.078979 998.742004 910.895996 1004.075928 910.895996 C 1007.664001 910.895996 1011.299988 911.217041 1014.977966 911.862061 C 1018.752014 912.414001 1022.153931 913.562988 1025.190063 915.312012 C 1028.225952 916.968018 1030.709961 919.313965 1032.641968 922.350037 C 1034.666992 925.385986 1035.677979 929.295044 1035.677979 934.079956 Z M 1003.661926 999.768066 C 1006.608032 999.768066 1009.457947 999.44696 1012.218018 998.802002 C 1014.977966 998.067017 1017.416992 996.963013 1019.531982 995.48999 C 1021.649963 993.927002 1023.305969 992.039978 1024.5 989.832031 C 1025.789917 987.624023 1026.432007 985.002075 1026.432007 981.965942 C 1026.432007 978.195007 1025.651978 975.159058 1024.085938 972.858032 C 1022.616028 970.557007 1020.635986 968.762939 1018.151978 967.476013 C 1015.760986 966.188965 1013.046021 965.312988 1010.01001 964.854004 C 1006.973938 964.39502 1003.937988 964.164001 1000.901978 964.164001 L 988.895935 964.164001 L 988.895935 998.802002 C 989.540955 998.984985 990.461975 999.122925 991.656006 999.215942 C 992.852966 999.30896 994.140015 999.398987 995.519958 999.492004 C 996.899963 999.585022 998.328003 999.675049 999.797974 999.768066 C 1001.270935 999.768066 1002.557983 999.768066 1003.661926 999.768066 Z M 996.07196 954.504028 C 997.637939 954.504028 999.522034 954.459045 1001.72998 954.366028 C 1003.937988 954.27301 1005.780029 954.13501 1007.25 953.952026 C 1009.457947 953.217041 1011.527954 952.340942 1013.460022 951.329956 C 1015.391968 950.226013 1017.096008 948.984009 1018.565979 947.604004 C 1020.132019 946.131042 1021.325928 944.475037 1022.153931 942.635986 C 1023.074951 940.703979 1023.533997 938.633972 1023.533997 936.426025 C 1023.533997 933.390015 1022.937012 930.906006 1021.739929 928.973999 C 1020.635986 926.948975 1019.117981 925.340942 1017.186035 924.144043 C 1015.253967 922.94696 1013.046021 922.118958 1010.562012 921.660034 C 1008.078003 921.108032 1005.549011 920.832031 1002.971985 920.832031 C 999.936035 920.832031 997.131042 920.925049 994.554016 921.108032 C 992.070007 921.200928 990.186035 921.383972 988.895935 921.660034 L 988.895935 954.504028 L 996.07196 954.504028 Z M 1054.031982 960.300049 C 1054.031982 944.198975 1057.43396 931.871948 1064.243896 923.31604 C 1071.051025 914.666992 1080.755981 910.343994 1093.362061 910.343994 C 1100.168945 910.343994 1106.057983 911.540955 1111.026001 913.932007 C 1115.993896 916.322998 1120.085938 919.727966 1123.307983 924.144043 C 1126.619995 928.467041 1129.055908 933.710999 1130.621948 939.875977 C 1132.184937 945.947998 1132.968018 952.755005 1132.968018 960.300049 C 1132.968018 976.401001 1129.518066 988.77301 1122.61792 997.421997 C 1115.807983 1005.977966 1106.057983 1010.256042 1093.362061 1010.256042 C 1086.64502 1010.256042 1080.803955 1009.05896 1075.835938 1006.667969 C 1070.958008 1004.276978 1066.865967 1000.916992 1063.553955 996.593994 C 1060.332031 992.17804 1057.94104 986.93396 1056.378052 980.862061 C 1054.812012 974.69696 1054.031982 967.844971 1054.031982 960.300049 Z M 1066.176025 960.300049 C 1066.176025 965.636963 1066.679932 970.695007 1067.69397 975.47998 C 1068.797974 980.265015 1070.453979 984.494995 1072.661987 988.176025 C 1074.869995 991.764038 1077.675049 994.661987 1081.079956 996.869995 C 1084.574951 998.984985 1088.670044 1000.043945 1093.362061 1000.043945 C 1101.917969 1000.043945 1108.631958 996.824951 1113.51001 990.383972 C 1118.38501 983.852966 1120.823975 973.823975 1120.823975 960.300049 C 1120.823975 955.055969 1120.271973 950.042969 1119.167969 945.257996 C 1118.153931 940.382996 1116.497925 936.149963 1114.199951 932.562012 C 1111.991943 928.881042 1109.139038 925.983032 1105.644043 923.867981 C 1102.239014 921.660034 1098.144043 920.555969 1093.362061 920.555969 C 1084.895996 920.555969 1078.226929 923.822998 1073.351929 930.354004 C 1068.567017 936.795044 1066.176025 946.776001 1066.176025 960.300049 Z M 1210.19104 964.302002 L 1163.822998 964.302002 L 1163.822998 1008.600037 L 1152.368896 1008.600037 L 1152.368896 912 L 1163.822998 912 L 1163.822998 954.089966 L 1210.19104 954.089966 L 1210.19104 912 L 1221.64502 912 L 1221.64502 1008.600037 L 1210.19104 1008.600037 L 1210.19104 964.302002 Z M 1241.084961 960.300049 C 1241.084961 944.198975 1244.48999 931.871948 1251.296997 923.31604 C 1258.104004 914.666992 1267.812012 910.343994 1280.414917 910.343994 C 1287.222046 910.343994 1293.110962 911.540955 1298.078979 913.932007 C 1303.046997 916.322998 1307.141968 919.727966 1310.360962 924.144043 C 1313.672974 928.467041 1316.112061 933.710999 1317.675049 939.875977 C 1319.238037 945.947998 1320.020996 952.755005 1320.020996 960.300049 C 1320.020996 976.401001 1316.570923 988.77301 1309.671021 997.421997 C 1302.864014 1005.977966 1293.110962 1010.256042 1280.414917 1010.256042 C 1273.697998 1010.256042 1267.856934 1009.05896 1262.889038 1006.667969 C 1258.014038 1004.276978 1253.918945 1000.916992 1250.606934 996.593994 C 1247.387939 992.17804 1244.993896 986.93396 1243.430908 980.862061 C 1241.86792 974.69696 1241.084961 967.844971 1241.084961 960.300049 Z M 1253.229004 960.300049 C 1253.229004 965.636963 1253.735962 970.695007 1254.746948 975.47998 C 1255.850952 980.265015 1257.506958 984.494995 1259.714966 988.176025 C 1261.922974 991.764038 1264.727905 994.661987 1268.132935 996.869995 C 1271.628052 998.984985 1275.723022 1000.043945 1280.414917 1000.043945 C 1288.971069 1000.043945 1295.687988 996.824951 1300.562988 990.383972 C 1305.437988 983.852966 1307.877075 973.823975 1307.877075 960.300049 C 1307.877075 955.055969 1307.324951 950.042969 1306.221069 945.257996 C 1305.209961 940.382996 1303.553955 936.149963 1301.253052 932.562012 C 1299.045044 928.881042 1296.192017 925.983032 1292.696899 923.867981 C 1289.291992 921.660034 1285.199951 920.555969 1280.414917 920.555969 C 1271.952026 920.555969 1265.280029 923.822998 1260.405029 930.354004 C 1255.619995 936.795044 1253.229004 946.776001 1253.229004 960.300049 Z M 1357.362061 963.887939 L 1350.875977 963.887939 L 1350.875977 1008.600037 L 1339.421997 1008.600037 L 1339.421997 912 L 1350.875977 912 L 1350.875977 956.988037 L 1357.085938 955.055969 L 1389.515991 912 L 1402.764038 912 L 1370.472046 953.538025 L 1364.676025 958.092041 L 1371.713989 963.612061 L 1407.041992 1008.600037 L 1392.552002 1008.600037 L 1357.362061 963.887939 Z"/>
        <path id="Vector" fill="#ffffff" fill-rule="evenodd" stroke="none" d="M 333.813019 632.072998 C 334.02301 631.265991 334.389008 630.51001 334.889984 629.847046 C 335.388 629.184021 336.009003 628.626038 336.720001 628.208984 C 337.431 627.792053 338.213989 627.519043 339.027008 627.411011 C 339.839996 627.302979 340.665009 627.356995 341.457001 627.572998 C 353.025024 630.64801 363.57901 636.812988 372.03302 645.429016 C 380.487 654.044983 386.535004 664.802979 389.553009 676.593018 C 389.763031 677.400024 389.816986 678.242981 389.712036 679.070984 C 389.604004 679.898987 389.337036 680.697021 388.929016 681.419983 C 388.518005 682.145996 387.972015 682.778992 387.320984 683.286011 C 386.673035 683.796021 385.929016 684.16803 385.136993 684.384033 C 384.609009 684.525024 384.06601 684.597046 383.52301 684.599976 C 382.146027 684.599976 380.811005 684.13501 379.721985 683.28302 C 378.630005 682.427979 377.846985 681.231018 377.493011 679.878052 C 375.029999 670.251038 370.095001 661.470032 363.195007 654.437988 C 356.295013 647.403015 347.678986 642.372009 338.235016 639.864014 C 337.443024 639.64801 336.699005 639.276001 336.048004 638.769043 C 335.397003 638.262024 334.850983 637.626038 334.440002 636.903015 C 334.029022 636.179993 333.761993 635.379028 333.654022 634.551025 C 333.54599 633.723022 333.600006 632.880005 333.813019 632.072998 Z M 331.994995 665.304016 C 342.75 668.229004 349.662018 675.27301 352.53302 686.238037 C 352.886993 687.591003 353.670013 688.787964 354.759003 689.643005 C 355.850983 690.494995 357.186005 690.960022 358.563019 690.960022 C 359.106018 690.957031 359.649017 690.88501 360.177002 690.744019 C 360.968994 690.528015 361.709991 690.156006 362.361023 689.645996 C 363.011993 689.138977 363.557983 688.505981 363.968994 687.779968 C 364.377014 687.057007 364.643982 686.259033 364.752014 685.43103 C 364.857025 684.603027 364.803009 683.76001 364.592987 682.953003 C 360.596985 667.722046 350.160004 657.083984 335.21701 653.013 C 333.618011 652.578003 331.914001 652.809021 330.480011 653.652039 C 329.049011 654.497986 328.002014 655.887024 327.576019 657.515991 C 327.150024 659.14801 327.375 660.882019 328.203003 662.343018 C 329.031006 663.804016 330.396027 664.869019 331.994995 665.304016 Z M 395.910004 741.108032 C 394.518005 751.880981 389.328003 761.769043 381.306 768.927002 C 373.283997 776.082031 362.982025 780.018066 352.322998 780 C 290.388916 780 240 728.643005 240 665.52002 C 239.981094 654.653992 243.843002 644.151001 250.865097 635.976013 C 257.887207 627.801025 267.588898 622.512024 278.158203 621.093018 C 280.831207 620.76001 283.537811 621.317993 285.874207 622.683044 C 288.210602 624.048035 290.051392 626.14502 291.122101 628.661987 L 307.596008 666.146973 L 307.596008 666.242981 C 308.415009 668.169006 308.753998 670.275024 308.580017 672.369019 C 308.408997 674.460022 307.731018 676.479004 306.606018 678.23999 C 306.464996 678.453003 306.318024 678.651001 306.162018 678.85199 L 289.920898 698.472046 C 295.763092 710.570984 308.181 723.117004 320.208008 729.087036 L 339.195007 712.622986 C 339.381012 712.46405 339.576019 712.314026 339.779999 712.179016 C 341.505005 711.003052 343.490997 710.289001 345.557983 710.093994 C 347.625 709.898987 349.70401 710.231995 351.612 711.06604 L 351.713989 711.114014 L 388.460999 727.895996 C 390.936005 728.981995 392.996979 730.856995 394.341034 733.239014 C 395.685028 735.621033 396.234009 738.380981 395.910004 741.108032 Z M 383.52301 739.518005 C 383.52301 739.518005 383.468994 739.518005 383.436005 739.518005 L 346.776001 722.783997 L 327.78302 739.248047 C 327.600006 739.406982 327.404999 739.557007 327.207001 739.692017 C 325.410004 740.912964 323.334015 741.639038 321.179993 741.798035 C 319.026001 741.957031 316.869019 741.542969 314.919006 740.598022 C 300.311981 733.403992 285.747894 718.674011 278.680817 703.94104 C 277.745117 701.970032 277.325104 699.78302 277.461884 697.596008 C 277.598694 695.408997 278.287201 693.296997 279.460815 691.460999 C 279.593414 691.244995 279.741913 691.041016 279.905426 690.848999 L 296.160889 671.201965 L 279.780914 633.837036 C 279.777618 633.807007 279.777618 633.773987 279.780914 633.740967 C 272.216705 634.748962 265.271698 638.528992 260.246124 644.379028 C 255.22081 650.229004 252.4599 657.744019 252.480316 665.52002 C 252.509109 692.498962 263.037598 718.36499 281.755219 737.442017 C 300.473999 756.519043 325.850983 767.25 352.322998 767.280029 C 359.946014 767.307007 367.317017 764.502014 373.05899 759.390015 C 378.800995 754.281006 382.521027 747.213013 383.52301 739.509033 L 383.52301 739.518005 Z"/>
        <g id="Arrow-Medium">
            <path id="path1" fill="none" stroke="none" d="M 1437 156 L 1533 156 L 1533 252 L 1437 252 Z"/>
            <path id="Vector-4" fill="none" stroke="#ffffff" stroke-width="9" d="M 1440 162 L 1527 162 L 1527 249 M 1527 162 L 1440 249"/>
		</g>
	</g>
</svg>
