<svg width="1205" height="605" viewBox="0 0 1205 605" fill="none" xmlns="http://www.w3.org/2000/svg">
<g filter="url(#filter0_f_891_13412)">
<mask id="mask0_891_13412" style="mask-type:alpha" maskUnits="userSpaceOnUse" x="14" y="-13" width="1240" height="604">
<path d="M183.211 565.236C186.992 562.967 191.152 561.832 191.909 562.966C195.313 566.37 186.236 570.908 163.168 577.716C149.931 581.497 139.343 586.035 139.343 587.926C139.343 593.221 122.703 591.329 113.248 584.9C105.307 579.228 104.928 578.093 110.979 574.69C115.517 572.421 118.543 572.421 120.434 575.824C122.325 579.228 126.863 579.228 139.721 575.447C148.797 573.177 160.899 570.53 166.193 570.152C171.488 569.774 179.429 567.505 183.211 565.236ZM146.906 552.379C146.906 550.11 149.553 549.732 152.957 550.866C156.361 552.001 160.898 553.135 163.168 553.135C171.487 553.135 156.36 560.699 148.04 560.699C142.746 560.699 139.343 562.968 139.343 566.371C139.343 570.909 137.83 571.288 132.157 568.64C128.375 566.371 124.216 565.994 122.703 567.128C121.568 568.263 120.434 567.506 120.434 565.237C120.434 562.968 126.484 559.943 133.669 558.43C140.854 557.295 146.905 554.27 146.906 552.379ZM185.857 553.89C195.689 548.974 203.631 548.217 203.631 552.377C203.631 553.889 197.58 556.915 190.395 559.184C175.646 563.722 172.621 560.319 185.857 553.89ZM623.409 106.505C680.136 96.2937 685.431 97.4282 638.537 109.908C623.032 114.068 598.45 120.875 583.701 125.413C558.363 132.599 557.985 132.977 576.137 130.708C590.885 129.195 593.911 129.574 590.886 133.355C588.239 135.624 576.894 138.271 565.17 138.65C548.909 139.406 542.101 141.675 536.05 147.726C531.89 152.264 526.974 156.046 524.705 156.046C522.436 156.046 517.898 159.072 514.494 162.475C508.444 168.526 508.443 168.526 514.872 166.257C530.755 160.206 541.345 158.694 538.698 162.853C534.916 169.282 510.334 176.09 500.501 173.443C494.829 171.93 477.811 176.09 454.742 184.41C434.699 191.595 414.656 197.646 410.117 197.646C405.957 197.646 393.855 202.184 383.266 207.1C373.055 212.395 360.198 216.555 354.903 216.555C349.609 216.555 341.288 219.202 336.75 222.605C332.212 225.631 326.539 227.144 324.648 226.009C322.379 224.875 320.867 225.253 320.867 227.522C320.868 232.816 348.097 229.791 392.721 219.959C412.386 215.42 438.859 209.748 451.339 206.722C463.818 204.075 478.189 201.049 483.484 199.536C488.778 198.402 503.906 195.377 517.52 192.729C531.134 190.46 543.236 187.057 544.37 185.166C545.883 183.275 548.531 182.518 550.8 184.031C553.069 185.165 555.337 184.788 556.093 182.519C558.741 174.199 643.075 158.693 691.482 157.559C738.376 156.424 758.042 154.533 820.063 143.188C837.837 139.784 858.259 137.137 865.444 137.137C872.63 136.759 887.379 134.49 897.589 131.465C916.12 126.548 915.363 126.548 877.546 128.439C841.997 130.708 838.971 130.33 841.241 124.279C843.131 119.363 846.535 118.606 854.855 120.119C860.906 121.631 868.092 120.875 870.739 118.606C873.766 116.337 896.077 113.312 920.28 112.177C944.861 111.043 972.846 108.774 982.301 106.883C997.806 104.236 998.941 104.236 992.512 109.152C988.352 111.8 978.898 115.202 971.712 116.715C964.149 117.85 956.585 119.363 954.316 120.497C947.131 123.523 1050 117.472 1064.74 114.068C1084.41 109.53 1112.39 109.53 1109.37 114.446C1107.86 116.715 1116.18 118.228 1130.92 118.606C1187.65 119.363 1217.15 120.876 1219.42 122.766C1223.2 126.926 1177.82 138.272 1150.97 140.163C1136.6 140.919 1122.98 143.188 1120.71 145.079C1118.82 146.97 1108.99 148.482 1099.16 148.482C1088.95 148.482 1074.58 151.13 1067.01 154.155C1059.83 157.18 1049.99 159.828 1045.46 159.828C1039.03 159.828 1038.65 160.585 1043.19 163.61C1047.73 166.635 1047.73 167.391 1041.3 167.391C1032.98 167.769 986.083 172.308 908.934 180.628C856.746 186.3 800.019 195.377 793.968 199.159C790.564 201.428 761.067 207.856 742.536 210.504C703.584 216.555 699.802 217.689 701.693 222.228C702.827 225.631 699.045 228.278 689.591 230.169C671.817 233.195 668.035 229.413 684.296 224.497C697.154 220.337 697.154 220.336 682.027 222.605C673.707 224.118 657.446 225.631 645.344 226.009C633.62 226.765 620.762 228.278 616.98 229.413C613.198 230.547 601.097 232.438 590.13 233.573C567.817 235.464 549.287 240.002 470.247 261.937C441.128 270.256 403.31 280.466 385.914 285.005C368.517 289.543 355.281 293.703 356.038 294.46C356.418 295.215 373.057 292.19 392.721 288.03C412.386 283.87 438.859 278.954 451.339 276.685C463.818 274.416 479.323 271.012 486.131 269.121C507.687 262.692 618.871 243.406 637.78 243.028C646.1 243.028 642.697 249.078 632.108 253.238L621.518 257.398L634.755 257.776C641.94 257.776 667.657 254.751 691.482 250.213C715.307 246.053 740.266 241.514 746.318 240.758C752.746 239.623 772.033 235.842 789.808 231.682C849.938 218.067 878.681 213.151 918.389 208.991C957.72 205.21 986.461 198.78 986.461 193.864C986.461 192.351 990.999 189.326 996.294 187.057C1003.86 183.275 1006.88 183.653 1011.42 188.191C1014.82 191.217 1015.96 195.755 1014.45 198.024C1012.56 201.427 1014.45 201.806 1020.88 199.915C1025.79 198.781 1034.11 196.511 1039.41 195.376L1048.86 193.486L1039.41 199.159L1029.95 204.831L1045.08 205.588C1060.21 205.966 1060.21 205.966 1048.86 209.369C1042.81 211.26 1027.68 213.529 1015.58 215.042C1003.86 216.554 992.891 219.202 991.756 220.714C990.621 222.605 982.679 224.118 973.981 224.497C965.284 224.875 954.317 226.009 949.4 227.144C935.786 231.304 1130.17 226.765 1163.07 222.605C1169.5 221.471 1175.55 222.227 1176.31 224.118C1177.44 227.521 1208.45 231.304 1239.08 231.304C1248.92 231.682 1254.59 233.195 1253.08 235.464C1251.94 237.355 1247.4 239.245 1243.62 239.245C1239.84 239.245 1234.92 241.515 1233.41 244.54C1230.01 249.834 1225.85 250.969 1174.04 259.668C1128.66 267.231 1126.39 269.878 1164.96 271.013C1178.95 271.391 1181.98 270.634 1178.58 266.852C1175.55 263.071 1176.31 261.937 1180.85 261.937C1184.25 261.937 1186.9 263.827 1186.9 266.096C1186.9 268.365 1189.16 269.499 1192.19 268.365C1194.84 267.23 1198.62 267.609 1200.51 269.499C1202.4 271.39 1214.5 271.391 1227.74 269.878L1251.56 267.23L1240.98 275.551C1235.3 280.089 1223.2 286.14 1214.5 288.787C1205.43 291.056 1198.24 294.459 1198.24 295.972C1198.24 297.485 1186.9 299.754 1172.9 301.267C1158.53 302.779 1141.14 305.427 1133.95 307.318C1126.77 309.209 1112.77 311.478 1102.56 312.234C1092.73 312.99 1083.65 314.881 1082.52 316.015C1081.38 317.15 1078.36 317.528 1075.71 316.394C1073.44 315.638 1060.96 317.15 1048.86 320.175C1019.36 327.361 1030.33 327.361 1086.68 320.554C1137.73 314.503 1143.78 314.124 1140.76 317.15C1136.6 320.932 1079.12 333.789 1064.74 333.79C1056.8 333.79 1039.78 336.059 1026.93 339.084C1014.07 342.11 993.268 346.648 981.166 348.917C956.585 353.833 941.08 363.666 956.963 364.422C965.283 364.422 965.283 364.801 958.097 367.826C953.937 369.717 945.618 371.986 939.567 373.499C918.767 378.037 933.516 379.928 985.704 379.928C1031.84 379.928 1039.41 380.684 1045.84 386.735C1052.26 392.407 1057.56 393.164 1079.12 391.273C1098.02 389.76 1104.07 390.517 1102.18 393.921C1100.67 396.19 1095.38 398.081 1090.08 398.081C1084.79 398.081 1077.22 399.971 1072.69 402.24C1068.53 404.509 1053.02 406.779 1037.89 407.535C995.538 409.426 958.477 413.586 951.669 417.368C948.265 419.258 939.567 420.771 932.76 420.771C925.953 420.771 917.633 422.662 914.607 424.553C910.825 427.2 924.818 428.335 959.988 428.335C1053.02 427.579 1087.43 428.713 1077.22 432.116C1071.93 433.629 1060.58 435.142 1051.89 435.52C1040.16 435.898 1035.62 437.411 1035.62 441.571C1035.62 448 1018.61 449.512 1014.82 443.461C1013.69 441.193 1009.53 439.68 1006.13 439.68C1000.83 439.68 1000.45 440.436 1004.99 443.084C1009.53 446.109 1008.4 447.244 1000.83 449.135C994.403 450.648 991.378 453.672 992.512 456.698C993.647 459.345 991.377 462.749 987.596 463.884C983.814 465.018 989.865 465.018 1000.83 464.261C1011.42 463.505 1020.5 464.262 1020.5 466.153C1020.5 468.043 1023.52 470.312 1027.3 471.069C1031.46 472.203 1029.95 472.959 1023.52 473.338C1018.23 473.338 1012.93 475.229 1012.18 477.498C1011.8 479.389 973.603 484.683 927.843 488.843C882.084 493.003 814.011 499.432 776.571 503.592C714.55 510.021 682.405 511.912 531.512 517.207C480.458 519.098 463.44 521.745 466.465 526.661C468.356 529.687 446.044 533.846 430.538 533.846C413.52 533.846 364.735 540.275 311.412 549.352C274.73 555.781 248.637 558.428 245.231 556.538C240.693 553.89 240.693 553.512 246.744 553.134C251.282 553.134 252.794 551.242 251.282 547.461C249.769 543.301 254.686 540.276 270.947 535.738C282.67 531.956 290.234 528.552 287.587 527.796C278.133 524.392 287.587 519.098 303.47 519.098C315.193 519.098 319.732 517.585 319.732 513.425C319.732 506.24 319.354 506.24 294.772 513.803C283.049 517.207 271.703 518.341 266.787 516.45C259.602 514.181 260.358 513.425 273.594 510.777C284.183 508.887 281.536 508.887 264.14 510.022C250.904 510.778 238.045 513.425 235.776 515.694C233.129 518.341 235.02 518.719 242.206 517.207C247.878 515.694 255.441 516.45 259.223 518.719C263.005 520.988 264.14 522.879 261.871 522.879C259.224 522.879 256.576 525.905 255.82 529.686C253.551 537.25 220.272 547.082 216.49 541.41C213.842 536.494 194.555 537.25 189.638 542.167C187.369 544.436 180.94 545.57 174.89 544.814C165.057 543.679 165.813 542.923 183.966 536.872C194.555 533.09 203.631 528.174 203.631 526.283C203.631 521.745 194.554 522.123 189.638 527.039C187.369 529.308 183.209 531.199 180.562 531.955C177.537 532.333 166.57 534.981 155.603 538.007C139.719 542.167 136.694 544.057 140.098 548.217C143.123 551.999 141.232 553.133 129.508 552.755C116.65 552.377 115.894 551.999 124.213 549.352L133.668 546.326L124.213 545.948C116.65 545.57 115.894 544.813 120.432 541.788C123.457 539.897 129.13 538.007 132.912 538.007C137.072 538.007 145.392 535.737 151.821 532.712C158.628 529.687 182.075 521.745 204.388 514.938C242.962 503.214 244.096 502.457 235.02 497.541C229.347 494.894 221.784 493.382 217.624 494.894C213.086 496.407 211.195 495.651 212.707 493.382C215.355 489.222 249.013 480.145 252.038 482.792C253.173 483.927 251.66 485.817 248.635 486.574C245.609 487.33 240.693 489.222 237.668 489.978C234.642 491.113 238.046 492.247 245.231 492.247C255.064 492.626 256.954 493.759 252.794 496.407C247.878 499.81 247.878 500.188 252.794 499.81C261.87 499.432 297.04 485.818 290.613 485.061C280.024 483.927 315.194 473.338 341.667 469.556C356.416 467.665 376.837 462.749 387.048 458.589C397.637 454.807 418.437 447.622 433.185 443.084C448.311 438.546 460.035 434.008 458.902 432.873C458.146 432.117 446.422 434.764 432.808 439.302C419.193 443.84 405.201 447.244 401.419 447.244C397.637 447.244 382.132 451.403 367.005 456.698C337.507 466.53 324.648 468.422 324.648 462.749C324.648 460.858 331.456 458.21 339.398 456.698C350.366 454.806 432.051 401.999 430.538 397.839C429.404 394.436 404.444 402.489 401.419 404.758C399.149 406.649 331.782 425.309 316.277 427.578C274.677 434.007 213.087 473.338 200.984 478.254L190.395 482.415L199.85 485.061C207.791 487.33 208.547 488.087 202.875 490.734C199.093 492.247 197.202 494.895 198.337 496.785C199.471 498.676 195.689 500.189 189.638 500.189C183.965 500.189 171.485 502.458 162.031 505.484C152.198 508.509 132.534 510.021 114.759 509.643C98.1196 508.887 76.1847 508.13 65.5957 508.13L46.6868 507.374L56.8984 498.676L67.109 489.6L55.3851 485.439C48.9562 483.17 39.502 481.28 34.9639 481.28C30.0475 481.28 25.8878 479.389 25.8878 477.498C25.8881 475.229 30.4259 473.716 36.0984 473.716H45.9311L37.2329 464.261C32.3166 459.345 25.5087 454.051 21.3488 452.538C12.2728 449.891 12.6512 443.461 22.1054 443.461C26.2653 443.461 29.6689 441.193 29.6691 438.168C29.6691 435.52 33.4507 431.739 37.9886 430.226C46.6867 427.957 46.687 427.578 36.4762 424.175C23.2401 419.258 23.6185 406.4 37.2329 397.324C42.5273 393.543 44.418 390.517 41.7709 390.517C39.1237 390.517 37.2326 388.248 37.6107 385.6C38.7452 374.255 32.3158 364.045 23.6178 364.045C7.35668 364.044 13.0294 353.456 30.8037 350.808C39.5016 349.674 51.6032 347.405 57.6541 346.27L68.9992 344.379L58.7886 338.706C45.1744 331.899 45.9312 326.227 60.3019 326.227C68.6216 326.227 72.4034 324.335 73.9161 319.041C75.0507 314.881 80.3456 310.721 85.64 309.208C94.3375 306.939 95.0939 306.183 89.0435 303.158C81.48 298.62 80.3455 285.383 87.909 282.358C90.9341 281.223 92.4465 277.442 91.6904 274.038C89.7996 267.609 104.548 258.154 115.515 258.154C118.162 258.154 120.432 256.264 120.432 254.373C120.432 252.104 117.028 250.59 112.868 250.59C108.708 250.59 105.305 252.482 105.305 254.751C105.305 256.641 103.414 257.398 101.145 255.885C98.12 253.994 98.8759 252.104 103.036 249.835C110.977 245.297 110.978 235.463 102.658 235.085C96.6068 234.707 96.6072 234.329 102.28 232.816C110.221 230.925 114.381 220.336 109.087 215.042C101.902 207.856 105.305 201.427 118.541 196.133C131.777 190.46 135.559 184.409 127.617 181.762C119.677 179.114 148.418 162.475 164.301 160.584C174.89 159.45 180.941 156.802 180.941 153.777C180.941 147.348 190.395 142.432 210.06 139.028C219.137 137.516 227.457 134.868 228.591 132.977C229.726 130.708 232.751 131.087 236.154 133.734C239.18 136.381 246.743 137.137 253.929 136.003C305.739 126.548 311.034 126.17 313.681 130.33C315.572 133.356 324.27 132.221 345.448 126.17C361.332 121.254 377.594 118.228 381.754 119.363C386.292 120.497 396.503 118.985 404.823 115.959C418.059 111.421 420.706 111.421 425.623 116.337C428.648 119.363 433.942 122.01 437.346 122.01C446.8 122.388 427.892 136.003 414.655 139.028C408.983 140.541 402.932 143.188 401.797 145.457C400.284 147.726 402.175 148.482 406.335 147.348C441.127 137.137 494.072 126.926 538.319 122.01C559.119 119.363 578.785 116.715 581.81 115.203C584.837 114.068 603.745 110.286 623.409 106.505ZM103.791 525.527C105.304 520.989 111.733 519.476 131.021 519.854H156.359L130.264 527.04C115.893 531.2 103.791 533.847 102.657 533.091C101.901 532.334 102.279 528.93 103.791 525.527ZM275.485 472.961C294.394 470.313 290.991 475.23 271.704 479.39C262.628 481.281 259.602 480.902 262.249 478.255C264.518 475.986 270.191 473.717 275.485 472.961ZM840.863 455.563C837.459 452.16 657.08 452.16 655.177 455.563C651.395 461.614 676.733 463.127 732.703 460.48C765.226 458.589 803.422 457.454 817.415 457.454C831.785 457.833 842.375 456.698 840.863 455.563ZM858.258 451.025C853.72 451.025 850.317 452.538 850.317 454.807C850.317 456.698 852.586 458.589 855.611 458.589C858.637 458.589 862.418 456.698 863.553 454.807C864.688 452.538 862.418 451.025 858.258 451.025ZM1190.68 455.187C1219.04 451.027 1250.43 451.027 1241.73 454.808C1237.57 456.699 1220.55 457.834 1203.91 457.834C1179.33 457.456 1177.06 457.078 1190.68 455.187ZM538.698 422.662C547.018 416.233 544.37 416.233 523.193 422.284C491.426 431.36 468.356 440.437 468.356 443.84C468.357 448.378 498.233 447.622 508.065 443.084C514.872 439.68 514.872 439.68 506.931 441.192C502.014 442.327 495.207 441.949 492.182 440.815C485.753 438.167 510.334 428.335 523.57 428.335C527.73 428.335 534.538 425.688 538.698 422.662ZM615.846 424.175C615.846 420.393 610.93 419.637 607.904 422.662C606.768 423.419 592.776 424.553 576.516 425.309C558.363 425.687 546.261 427.578 544.748 430.604C543.235 433.251 537.941 435.899 532.646 437.033C527.353 438.168 538.698 438.167 557.228 437.411C576.137 436.655 593.534 437.411 596.559 439.302C599.584 441.193 604.501 441.193 607.904 439.68C611.308 437.789 617.358 435.142 621.518 433.63C628.325 431.361 628.325 430.604 622.653 429.469C618.871 428.335 615.846 426.066 615.846 424.175ZM884.353 437.033C868.848 437.033 862.419 437.789 870.36 438.546C877.924 439.302 890.782 439.302 898.724 438.546C906.287 437.789 899.858 437.033 884.353 437.033ZM662.362 408.669C654.042 406.401 642.697 414.72 647.235 419.637C648.747 420.771 647.613 424.553 644.966 427.578C641.184 432.495 641.941 432.873 650.639 430.982C656.311 429.469 661.984 429.847 663.118 432.116C666.522 437.411 680.893 436.655 689.591 430.604C693.751 427.957 700.558 424.553 704.718 423.418C712.659 421.527 685.808 419.637 668.034 420.771C656.311 421.527 653.286 414.72 664.253 412.451C669.547 411.316 669.169 410.56 662.362 408.669ZM854.098 425.687C844.644 425.687 840.862 426.444 845.779 427.2C850.317 427.957 857.88 427.957 862.796 427.2C867.334 426.444 863.553 425.687 854.098 425.687ZM587.483 416.611C589.374 414.72 590.129 413.208 589.373 413.586C570.087 418.124 562.145 420.393 560.254 422.284C556.472 426.065 583.323 420.393 587.483 416.611ZM1103.7 414.343C1137.36 414.343 1138.11 414.343 1116.93 416.991C1104.45 418.503 1080.63 420.016 1063.99 419.638C1038.27 419.638 1036.38 419.26 1050.75 416.991C1060.21 415.478 1084.03 414.343 1103.7 414.343ZM997.806 327.361C988.352 327.361 984.57 328.117 989.487 328.874C994.025 329.63 1001.59 329.63 1006.5 328.874C1011.04 328.117 1007.26 327.361 997.806 327.361ZM309.522 233.573C321.623 226.766 311.412 226.766 296.285 233.573C287.587 237.733 286.831 238.867 292.503 238.867C296.663 238.867 304.227 236.598 309.522 233.573ZM1167.99 166.635C1167.99 164.744 1173.66 163.988 1180.47 165.122C1197.11 167.391 1197.48 167.769 1186.9 170.795C1176.31 174.198 1167.99 172.307 1167.99 166.635ZM786.028 132.977C789.054 131.086 793.969 130.708 796.617 131.465C799.642 132.599 806.071 133.355 810.988 133.355C829.518 133.355 816.282 139.784 789.054 144.322C756.154 149.617 687.706 152.264 687.702 148.105C687.702 144.701 704.72 142.053 746.319 138.65C765.228 137.515 783.003 134.868 786.028 132.977ZM661.227 132.22C676.732 129.573 678.623 129.574 672.572 132.977C663.118 138.272 643.831 142.053 647.991 137.893C650.26 135.624 655.933 133.355 661.227 132.22ZM944.105 124.658C947.509 123.523 943.727 122.766 935.407 123.144C927.087 123.144 924.062 123.901 928.978 124.658C933.516 125.414 940.323 125.414 944.105 124.658ZM1038.27 103.854C1055.67 94.3994 1058.32 94.0213 1058.32 100.45C1058.32 105.367 1029.2 116.711 1025.79 113.308C1024.66 112.173 1030.33 108.014 1038.27 103.854ZM859.016 95.9132C860.529 95.9132 861.664 97.0477 861.664 99.3167C861.663 101.208 856.747 103.098 850.696 103.098C844.646 103.098 827.249 105.745 812.122 108.771C796.995 112.174 784.136 113.688 783.002 112.553C779.976 109.528 791.322 106.501 824.602 101.207C841.997 98.5598 857.124 96.2915 859.016 95.9132ZM1188.79 99.3177C1199 94.7796 1202.02 94.7796 1202.02 99.3177C1202.02 101.208 1197.48 103.099 1191.81 102.721C1182.36 102.721 1181.98 102.343 1188.79 99.3177ZM1006.13 77.0043C1029.95 76.248 1034.87 80.7854 1012.18 82.2981C1005.37 83.0545 975.494 86.4582 945.996 89.8618C916.877 93.2654 889.649 95.5342 885.488 94.3999C881.328 93.2654 883.219 92.509 890.404 92.1309C896.455 92.1309 903.641 89.8625 905.532 87.9716C907.801 85.7026 925.575 83.0545 944.862 82.2981C964.148 81.5418 980.409 80.0298 981.167 79.2734C981.924 78.517 993.269 77.3825 1006.13 77.0043ZM927.844 53.9353C949.4 45.9937 956.964 44.8594 948.644 50.5318C944.484 53.5572 947.887 53.935 961.502 52.0441C975.116 50.1532 978.898 50.5317 977.007 53.9353C975.116 57.3389 967.552 58.0958 953.938 56.5831C942.215 55.4486 933.517 55.8264 933.517 58.0955C933.517 59.9864 927.844 61.499 921.415 61.499C909.691 61.1208 910.07 60.7425 927.844 53.9353ZM1224.33 31.2488C1232.65 31.2488 1240.6 32.7621 1241.73 35.0312C1243.24 37.3001 1237.95 38.8126 1228.87 38.8126C1220.55 38.8125 1212.61 36.9219 1211.48 35.0312C1209.96 32.7621 1215.26 31.2489 1224.33 31.2488ZM1126.39 -13C1137.73 -13 1142.65 -12.244 1136.98 -11.4876C1130.93 -10.7313 1121.85 -10.7313 1116.18 -11.4876C1110.13 -12.244 1115.04 -13 1126.39 -13Z" fill="#A7AF39"/>
</mask>
<g mask="url(#mask0_891_13412)">
<path d="M183.211 565.236C186.992 562.967 191.152 561.832 191.909 562.966C195.313 566.37 186.236 570.908 163.168 577.716C149.931 581.497 139.343 586.035 139.343 587.926C139.343 593.221 122.703 591.329 113.248 584.9C105.307 579.228 104.928 578.093 110.979 574.69C115.517 572.421 118.543 572.421 120.434 575.824C122.325 579.228 126.863 579.228 139.721 575.447C148.797 573.177 160.899 570.53 166.193 570.152C171.488 569.774 179.429 567.505 183.211 565.236ZM146.906 552.379C146.906 550.11 149.553 549.732 152.957 550.866C156.361 552.001 160.898 553.135 163.168 553.135C171.487 553.135 156.36 560.699 148.04 560.699C142.746 560.699 139.343 562.968 139.343 566.371C139.343 570.909 137.83 571.288 132.157 568.64C128.375 566.371 124.216 565.994 122.703 567.128C121.568 568.263 120.434 567.506 120.434 565.237C120.434 562.968 126.484 559.943 133.669 558.43C140.854 557.295 146.905 554.27 146.906 552.379ZM185.857 553.89C195.689 548.974 203.631 548.217 203.631 552.377C203.631 553.889 197.58 556.915 190.395 559.184C175.646 563.722 172.621 560.319 185.857 553.89ZM623.409 106.505C680.136 96.2937 685.431 97.4282 638.537 109.908C623.032 114.068 598.45 120.875 583.701 125.413C558.363 132.599 557.985 132.977 576.137 130.708C590.885 129.195 593.911 129.574 590.886 133.355C588.239 135.624 576.894 138.271 565.17 138.65C548.909 139.406 542.101 141.675 536.05 147.726C531.89 152.264 526.974 156.046 524.705 156.046C522.436 156.046 517.898 159.072 514.494 162.475C508.444 168.526 508.443 168.526 514.872 166.257C530.755 160.206 541.345 158.694 538.698 162.853C534.916 169.282 510.334 176.09 500.501 173.443C494.829 171.93 477.811 176.09 454.742 184.41C434.699 191.595 414.656 197.646 410.117 197.646C405.957 197.646 393.855 202.184 383.266 207.1C373.055 212.395 360.198 216.555 354.903 216.555C349.609 216.555 341.288 219.202 336.75 222.605C332.212 225.631 326.539 227.144 324.648 226.009C322.379 224.875 320.867 225.253 320.867 227.522C320.868 232.816 348.097 229.791 392.721 219.959C412.386 215.42 438.859 209.748 451.339 206.722C463.818 204.075 478.189 201.049 483.484 199.536C488.778 198.402 503.906 195.377 517.52 192.729C531.134 190.46 543.236 187.057 544.37 185.166C545.883 183.275 548.531 182.518 550.8 184.031C553.069 185.165 555.337 184.788 556.093 182.519C558.741 174.199 643.075 158.693 691.482 157.559C738.376 156.424 758.042 154.533 820.063 143.188C837.837 139.784 858.259 137.137 865.444 137.137C872.63 136.759 887.379 134.49 897.589 131.465C916.12 126.548 915.363 126.548 877.546 128.439C841.997 130.708 838.971 130.33 841.241 124.279C843.131 119.363 846.535 118.606 854.855 120.119C860.906 121.631 868.092 120.875 870.739 118.606C873.766 116.337 896.077 113.312 920.28 112.177C944.861 111.043 972.846 108.774 982.301 106.883C997.806 104.236 998.941 104.236 992.512 109.152C988.352 111.8 978.898 115.202 971.712 116.715C964.149 117.85 956.585 119.363 954.316 120.497C947.131 123.523 1050 117.472 1064.74 114.068C1084.41 109.53 1112.39 109.53 1109.37 114.446C1107.86 116.715 1116.18 118.228 1130.92 118.606C1187.65 119.363 1217.15 120.876 1219.42 122.766C1223.2 126.926 1177.82 138.272 1150.97 140.163C1136.6 140.919 1122.98 143.188 1120.71 145.079C1118.82 146.97 1108.99 148.482 1099.16 148.482C1088.95 148.482 1074.58 151.13 1067.01 154.155C1059.83 157.18 1049.99 159.828 1045.46 159.828C1039.03 159.828 1038.65 160.585 1043.19 163.61C1047.73 166.635 1047.73 167.391 1041.3 167.391C1032.98 167.769 986.083 172.308 908.934 180.628C856.746 186.3 800.019 195.377 793.968 199.159C790.564 201.428 761.067 207.856 742.536 210.504C703.584 216.555 699.802 217.689 701.693 222.228C702.827 225.631 699.045 228.278 689.591 230.169C671.817 233.195 668.035 229.413 684.296 224.497C697.154 220.337 697.154 220.336 682.027 222.605C673.707 224.118 657.446 225.631 645.344 226.009C633.62 226.765 620.762 228.278 616.98 229.413C613.198 230.547 601.097 232.438 590.13 233.573C567.817 235.464 549.287 240.002 470.247 261.937C441.128 270.256 403.31 280.466 385.914 285.005C368.517 289.543 355.281 293.703 356.038 294.46C356.418 295.215 373.057 292.19 392.721 288.03C412.386 283.87 438.859 278.954 451.339 276.685C463.818 274.416 479.323 271.012 486.131 269.121C507.687 262.692 618.871 243.406 637.78 243.028C646.1 243.028 642.697 249.078 632.108 253.238L621.518 257.398L634.755 257.776C641.94 257.776 667.657 254.751 691.482 250.213C715.307 246.053 740.266 241.514 746.318 240.758C752.746 239.623 772.033 235.842 789.808 231.682C849.938 218.067 878.681 213.151 918.389 208.991C957.72 205.21 986.461 198.78 986.461 193.864C986.461 192.351 990.999 189.326 996.294 187.057C1003.86 183.275 1006.88 183.653 1011.42 188.191C1014.82 191.217 1015.96 195.755 1014.45 198.024C1012.56 201.427 1014.45 201.806 1020.88 199.915C1025.79 198.781 1034.11 196.511 1039.41 195.376L1048.86 193.486L1039.41 199.159L1029.95 204.831L1045.08 205.588C1060.21 205.966 1060.21 205.966 1048.86 209.369C1042.81 211.26 1027.68 213.529 1015.58 215.042C1003.86 216.554 992.891 219.202 991.756 220.714C990.621 222.605 982.679 224.118 973.981 224.497C965.284 224.875 954.317 226.009 949.4 227.144C935.786 231.304 1130.17 226.765 1163.07 222.605C1169.5 221.471 1175.55 222.227 1176.31 224.118C1177.44 227.521 1208.45 231.304 1239.08 231.304C1248.92 231.682 1254.59 233.195 1253.08 235.464C1251.94 237.355 1247.4 239.245 1243.62 239.245C1239.84 239.245 1234.92 241.515 1233.41 244.54C1230.01 249.834 1225.85 250.969 1174.04 259.668C1128.66 267.231 1126.39 269.878 1164.96 271.013C1178.95 271.391 1181.98 270.634 1178.58 266.852C1175.55 263.071 1176.31 261.937 1180.85 261.937C1184.25 261.937 1186.9 263.827 1186.9 266.096C1186.9 268.365 1189.16 269.499 1192.19 268.365C1194.84 267.23 1198.62 267.609 1200.51 269.499C1202.4 271.39 1214.5 271.391 1227.74 269.878L1251.56 267.23L1240.98 275.551C1235.3 280.089 1223.2 286.14 1214.5 288.787C1205.43 291.056 1198.24 294.459 1198.24 295.972C1198.24 297.485 1186.9 299.754 1172.9 301.267C1158.53 302.779 1141.14 305.427 1133.95 307.318C1126.77 309.209 1112.77 311.478 1102.56 312.234C1092.73 312.99 1083.65 314.881 1082.52 316.015C1081.38 317.15 1078.36 317.528 1075.71 316.394C1073.44 315.638 1060.96 317.15 1048.86 320.175C1019.36 327.361 1030.33 327.361 1086.68 320.554C1137.73 314.503 1143.78 314.124 1140.76 317.15C1136.6 320.932 1079.12 333.789 1064.74 333.79C1056.8 333.79 1039.78 336.059 1026.93 339.084C1014.07 342.11 993.268 346.648 981.166 348.917C956.585 353.833 941.08 363.666 956.963 364.422C965.283 364.422 965.283 364.801 958.097 367.826C953.937 369.717 945.618 371.986 939.567 373.499C918.767 378.037 933.516 379.928 985.704 379.928C1031.84 379.928 1039.41 380.684 1045.84 386.735C1052.26 392.407 1057.56 393.164 1079.12 391.273C1098.02 389.76 1104.07 390.517 1102.18 393.921C1100.67 396.19 1095.38 398.081 1090.08 398.081C1084.79 398.081 1077.22 399.971 1072.69 402.24C1068.53 404.509 1053.02 406.779 1037.89 407.535C995.538 409.426 958.477 413.586 951.669 417.368C948.265 419.258 939.567 420.771 932.76 420.771C925.953 420.771 917.633 422.662 914.607 424.553C910.825 427.2 924.818 428.335 959.988 428.335C1053.02 427.579 1087.43 428.713 1077.22 432.116C1071.93 433.629 1060.58 435.142 1051.89 435.52C1040.16 435.898 1035.62 437.411 1035.62 441.571C1035.62 448 1018.61 449.512 1014.82 443.461C1013.69 441.193 1009.53 439.68 1006.13 439.68C1000.83 439.68 1000.45 440.436 1004.99 443.084C1009.53 446.109 1008.4 447.244 1000.83 449.135C994.403 450.648 991.378 453.672 992.512 456.698C993.647 459.345 991.377 462.749 987.596 463.884C983.814 465.018 989.865 465.018 1000.83 464.261C1011.42 463.505 1020.5 464.262 1020.5 466.153C1020.5 468.043 1023.52 470.312 1027.3 471.069C1031.46 472.203 1029.95 472.959 1023.52 473.338C1018.23 473.338 1012.93 475.229 1012.18 477.498C1011.8 479.389 973.603 484.683 927.843 488.843C882.084 493.003 814.011 499.432 776.571 503.592C714.55 510.021 682.405 511.912 531.512 517.207C480.458 519.098 463.44 521.745 466.465 526.661C468.356 529.687 446.044 533.846 430.538 533.846C413.52 533.846 364.735 540.275 311.412 549.352C274.73 555.781 248.637 558.428 245.231 556.538C240.693 553.89 240.693 553.512 246.744 553.134C251.282 553.134 252.794 551.242 251.282 547.461C249.769 543.301 254.686 540.276 270.947 535.738C282.67 531.956 290.234 528.552 287.587 527.796C278.133 524.392 287.587 519.098 303.47 519.098C315.193 519.098 319.732 517.585 319.732 513.425C319.732 506.24 319.354 506.24 294.772 513.803C283.049 517.207 271.703 518.341 266.787 516.45C259.602 514.181 260.358 513.425 273.594 510.777C284.183 508.887 281.536 508.887 264.14 510.022C250.904 510.778 238.045 513.425 235.776 515.694C233.129 518.341 235.02 518.719 242.206 517.207C247.878 515.694 255.441 516.45 259.223 518.719C263.005 520.988 264.14 522.879 261.871 522.879C259.224 522.879 256.576 525.905 255.82 529.686C253.551 537.25 220.272 547.082 216.49 541.41C213.842 536.494 194.555 537.25 189.638 542.167C187.369 544.436 180.94 545.57 174.89 544.814C165.057 543.679 165.813 542.923 183.966 536.872C194.555 533.09 203.631 528.174 203.631 526.283C203.631 521.745 194.554 522.123 189.638 527.039C187.369 529.308 183.209 531.199 180.562 531.955C177.537 532.333 166.57 534.981 155.603 538.007C139.719 542.167 136.694 544.057 140.098 548.217C143.123 551.999 141.232 553.133 129.508 552.755C116.65 552.377 115.894 551.999 124.213 549.352L133.668 546.326L124.213 545.948C116.65 545.57 115.894 544.813 120.432 541.788C123.457 539.897 129.13 538.007 132.912 538.007C137.072 538.007 145.392 535.737 151.821 532.712C158.628 529.687 182.075 521.745 204.388 514.938C242.962 503.214 244.096 502.457 235.02 497.541C229.347 494.894 221.784 493.382 217.624 494.894C213.086 496.407 211.195 495.651 212.707 493.382C215.355 489.222 249.013 480.145 252.038 482.792C253.173 483.927 251.66 485.817 248.635 486.574C245.609 487.33 240.693 489.222 237.668 489.978C234.642 491.113 238.046 492.247 245.231 492.247C255.064 492.626 256.954 493.759 252.794 496.407C247.878 499.81 247.878 500.188 252.794 499.81C261.87 499.432 297.04 485.818 290.613 485.061C280.024 483.927 315.194 473.338 341.667 469.556C356.416 467.665 376.837 462.749 387.048 458.589C397.637 454.807 418.437 447.622 433.185 443.084C448.311 438.546 460.035 434.008 458.902 432.873C458.146 432.117 446.422 434.764 432.808 439.302C419.193 443.84 405.201 447.244 401.419 447.244C397.637 447.244 382.132 451.403 367.005 456.698C337.507 466.53 324.648 468.422 324.648 462.749C324.648 460.858 331.456 458.21 339.398 456.698C350.366 454.806 432.051 401.999 430.538 397.839C429.404 394.436 404.444 402.489 401.419 404.758C399.149 406.649 331.782 425.309 316.277 427.578C274.677 434.007 213.087 473.338 200.984 478.254L190.395 482.415L199.85 485.061C207.791 487.33 208.547 488.087 202.875 490.734C199.093 492.247 197.202 494.895 198.337 496.785C199.471 498.676 195.689 500.189 189.638 500.189C183.965 500.189 171.485 502.458 162.031 505.484C152.198 508.509 132.534 510.021 114.759 509.643C98.1196 508.887 76.1847 508.13 65.5957 508.13L46.6868 507.374L56.8984 498.676L67.109 489.6L55.3851 485.439C48.9562 483.17 39.502 481.28 34.9639 481.28C30.0475 481.28 25.8878 479.389 25.8878 477.498C25.8881 475.229 30.4259 473.716 36.0984 473.716H45.9311L37.2329 464.261C32.3166 459.345 25.5087 454.051 21.3488 452.538C12.2728 449.891 12.6512 443.461 22.1054 443.461C26.2653 443.461 29.6689 441.193 29.6691 438.168C29.6691 435.52 33.4507 431.739 37.9886 430.226C46.6867 427.957 46.687 427.578 36.4762 424.175C23.2401 419.258 23.6185 406.4 37.2329 397.324C42.5273 393.543 44.418 390.517 41.7709 390.517C39.1237 390.517 37.2326 388.248 37.6107 385.6C38.7452 374.255 32.3158 364.045 23.6178 364.045C7.35668 364.044 13.0294 353.456 30.8037 350.808C39.5016 349.674 51.6032 347.405 57.6541 346.27L68.9992 344.379L58.7886 338.706C45.1744 331.899 45.9312 326.227 60.3019 326.227C68.6216 326.227 72.4034 324.335 73.9161 319.041C75.0507 314.881 80.3456 310.721 85.64 309.208C94.3375 306.939 95.0939 306.183 89.0435 303.158C81.48 298.62 80.3455 285.383 87.909 282.358C90.9341 281.223 92.4465 277.442 91.6904 274.038C89.7996 267.609 104.548 258.154 115.515 258.154C118.162 258.154 120.432 256.264 120.432 254.373C120.432 252.104 117.028 250.59 112.868 250.59C108.708 250.59 105.305 252.482 105.305 254.751C105.305 256.641 103.414 257.398 101.145 255.885C98.12 253.994 98.8759 252.104 103.036 249.835C110.977 245.297 110.978 235.463 102.658 235.085C96.6068 234.707 96.6072 234.329 102.28 232.816C110.221 230.925 114.381 220.336 109.087 215.042C101.902 207.856 105.305 201.427 118.541 196.133C131.777 190.46 135.559 184.409 127.617 181.762C119.677 179.114 148.418 162.475 164.301 160.584C174.89 159.45 180.941 156.802 180.941 153.777C180.941 147.348 190.395 142.432 210.06 139.028C219.137 137.516 227.457 134.868 228.591 132.977C229.726 130.708 232.751 131.087 236.154 133.734C239.18 136.381 246.743 137.137 253.929 136.003C305.739 126.548 311.034 126.17 313.681 130.33C315.572 133.356 324.27 132.221 345.448 126.17C361.332 121.254 377.594 118.228 381.754 119.363C386.292 120.497 396.503 118.985 404.823 115.959C418.059 111.421 420.706 111.421 425.623 116.337C428.648 119.363 433.942 122.01 437.346 122.01C446.8 122.388 427.892 136.003 414.655 139.028C408.983 140.541 402.932 143.188 401.797 145.457C400.284 147.726 402.175 148.482 406.335 147.348C441.127 137.137 494.072 126.926 538.319 122.01C559.119 119.363 578.785 116.715 581.81 115.203C584.837 114.068 603.745 110.286 623.409 106.505ZM103.791 525.527C105.304 520.989 111.733 519.476 131.021 519.854H156.359L130.264 527.04C115.893 531.2 103.791 533.847 102.657 533.091C101.901 532.334 102.279 528.93 103.791 525.527ZM275.485 472.961C294.394 470.313 290.991 475.23 271.704 479.39C262.628 481.281 259.602 480.902 262.249 478.255C264.518 475.986 270.191 473.717 275.485 472.961ZM840.863 455.563C837.459 452.16 657.08 452.16 655.177 455.563C651.395 461.614 676.733 463.127 732.703 460.48C765.226 458.589 803.422 457.454 817.415 457.454C831.785 457.833 842.375 456.698 840.863 455.563ZM858.258 451.025C853.72 451.025 850.317 452.538 850.317 454.807C850.317 456.698 852.586 458.589 855.611 458.589C858.637 458.589 862.418 456.698 863.553 454.807C864.688 452.538 862.418 451.025 858.258 451.025ZM1190.68 455.187C1219.04 451.027 1250.43 451.027 1241.73 454.808C1237.57 456.699 1220.55 457.834 1203.91 457.834C1179.33 457.456 1177.06 457.078 1190.68 455.187ZM538.698 422.662C547.018 416.233 544.37 416.233 523.193 422.284C491.426 431.36 468.356 440.437 468.356 443.84C468.357 448.378 498.233 447.622 508.065 443.084C514.872 439.68 514.872 439.68 506.931 441.192C502.014 442.327 495.207 441.949 492.182 440.815C485.753 438.167 510.334 428.335 523.57 428.335C527.73 428.335 534.538 425.688 538.698 422.662ZM615.846 424.175C615.846 420.393 610.93 419.637 607.904 422.662C606.768 423.419 592.776 424.553 576.516 425.309C558.363 425.687 546.261 427.578 544.748 430.604C543.235 433.251 537.941 435.899 532.646 437.033C527.353 438.168 538.698 438.167 557.228 437.411C576.137 436.655 593.534 437.411 596.559 439.302C599.584 441.193 604.501 441.193 607.904 439.68C611.308 437.789 617.358 435.142 621.518 433.63C628.325 431.361 628.325 430.604 622.653 429.469C618.871 428.335 615.846 426.066 615.846 424.175ZM884.353 437.033C868.848 437.033 862.419 437.789 870.36 438.546C877.924 439.302 890.782 439.302 898.724 438.546C906.287 437.789 899.858 437.033 884.353 437.033ZM662.362 408.669C654.042 406.401 642.697 414.72 647.235 419.637C648.747 420.771 647.613 424.553 644.966 427.578C641.184 432.495 641.941 432.873 650.639 430.982C656.311 429.469 661.984 429.847 663.118 432.116C666.522 437.411 680.893 436.655 689.591 430.604C693.751 427.957 700.558 424.553 704.718 423.418C712.659 421.527 685.808 419.637 668.034 420.771C656.311 421.527 653.286 414.72 664.253 412.451C669.547 411.316 669.169 410.56 662.362 408.669ZM854.098 425.687C844.644 425.687 840.862 426.444 845.779 427.2C850.317 427.957 857.88 427.957 862.796 427.2C867.334 426.444 863.553 425.687 854.098 425.687ZM587.483 416.611C589.374 414.72 590.129 413.208 589.373 413.586C570.087 418.124 562.145 420.393 560.254 422.284C556.472 426.065 583.323 420.393 587.483 416.611ZM1103.7 414.343C1137.36 414.343 1138.11 414.343 1116.93 416.991C1104.45 418.503 1080.63 420.016 1063.99 419.638C1038.27 419.638 1036.38 419.26 1050.75 416.991C1060.21 415.478 1084.03 414.343 1103.7 414.343ZM997.806 327.361C988.352 327.361 984.57 328.117 989.487 328.874C994.025 329.63 1001.59 329.63 1006.5 328.874C1011.04 328.117 1007.26 327.361 997.806 327.361ZM309.522 233.573C321.623 226.766 311.412 226.766 296.285 233.573C287.587 237.733 286.831 238.867 292.503 238.867C296.663 238.867 304.227 236.598 309.522 233.573ZM1167.99 166.635C1167.99 164.744 1173.66 163.988 1180.47 165.122C1197.11 167.391 1197.48 167.769 1186.9 170.795C1176.31 174.198 1167.99 172.307 1167.99 166.635ZM786.028 132.977C789.054 131.086 793.969 130.708 796.617 131.465C799.642 132.599 806.071 133.355 810.988 133.355C829.518 133.355 816.282 139.784 789.054 144.322C756.154 149.617 687.706 152.264 687.702 148.105C687.702 144.701 704.72 142.053 746.319 138.65C765.228 137.515 783.003 134.868 786.028 132.977ZM661.227 132.22C676.732 129.573 678.623 129.574 672.572 132.977C663.118 138.272 643.831 142.053 647.991 137.893C650.26 135.624 655.933 133.355 661.227 132.22ZM944.105 124.658C947.509 123.523 943.727 122.766 935.407 123.144C927.087 123.144 924.062 123.901 928.978 124.658C933.516 125.414 940.323 125.414 944.105 124.658ZM1038.27 103.854C1055.67 94.3994 1058.32 94.0213 1058.32 100.45C1058.32 105.367 1029.2 116.711 1025.79 113.308C1024.66 112.173 1030.33 108.014 1038.27 103.854ZM859.016 95.9132C860.529 95.9132 861.664 97.0477 861.664 99.3167C861.663 101.208 856.747 103.098 850.696 103.098C844.646 103.098 827.249 105.745 812.122 108.771C796.995 112.174 784.136 113.688 783.002 112.553C779.976 109.528 791.322 106.501 824.602 101.207C841.997 98.5598 857.124 96.2915 859.016 95.9132ZM1188.79 99.3177C1199 94.7796 1202.02 94.7796 1202.02 99.3177C1202.02 101.208 1197.48 103.099 1191.81 102.721C1182.36 102.721 1181.98 102.343 1188.79 99.3177ZM1006.13 77.0043C1029.95 76.248 1034.87 80.7854 1012.18 82.2981C1005.37 83.0545 975.494 86.4582 945.996 89.8618C916.877 93.2654 889.649 95.5342 885.488 94.3999C881.328 93.2654 883.219 92.509 890.404 92.1309C896.455 92.1309 903.641 89.8625 905.532 87.9716C907.801 85.7026 925.575 83.0545 944.862 82.2981C964.148 81.5418 980.409 80.0298 981.167 79.2734C981.924 78.517 993.269 77.3825 1006.13 77.0043ZM927.844 53.9353C949.4 45.9937 956.964 44.8594 948.644 50.5318C944.484 53.5572 947.887 53.935 961.502 52.0441C975.116 50.1532 978.898 50.5317 977.007 53.9353C975.116 57.3389 967.552 58.0958 953.938 56.5831C942.215 55.4486 933.517 55.8264 933.517 58.0955C933.517 59.9864 927.844 61.499 921.415 61.499C909.691 61.1208 910.07 60.7425 927.844 53.9353ZM1224.33 31.2488C1232.65 31.2488 1240.6 32.7621 1241.73 35.0312C1243.24 37.3001 1237.95 38.8126 1228.87 38.8126C1220.55 38.8125 1212.61 36.9219 1211.48 35.0312C1209.96 32.7621 1215.26 31.2489 1224.33 31.2488ZM1126.39 -13C1137.73 -13 1142.65 -12.244 1136.98 -11.4876C1130.93 -10.7313 1121.85 -10.7313 1116.18 -11.4876C1110.13 -12.244 1115.04 -13 1126.39 -13Z" fill="#A7AF39"/>
<g filter="url(#filter1_fn_891_13412)">
<ellipse cx="822.659" cy="557.538" rx="389.833" ry="753.979" transform="rotate(30 822.659 557.538)" fill="#153843"/>
</g>
<g filter="url(#filter2_fn_891_13412)">
<ellipse cx="1399.65" cy="-283.222" rx="389.833" ry="753.979" transform="rotate(30 1399.65 -283.222)" fill="#9B3393"/>
</g>
</g>
</g>
<defs>
<filter id="filter0_f_891_13412" x="0" y="-27" width="1267.32" height="632" filterUnits="userSpaceOnUse" color-interpolation-filters="sRGB">
<feFlood flood-opacity="0" result="BackgroundImageFix"/>
<feBlend mode="normal" in="SourceGraphic" in2="BackgroundImageFix" result="shape"/>
<feGaussianBlur stdDeviation="7" result="effect1_foregroundBlur_891_13412"/>
</filter>
<filter id="filter1_fn_891_13412" x="16.5918" y="-424.078" width="1612.13" height="1963.23" filterUnits="userSpaceOnUse" color-interpolation-filters="sRGB">
<feFlood flood-opacity="0" result="BackgroundImageFix"/>
<feBlend mode="normal" in="SourceGraphic" in2="BackgroundImageFix" result="shape"/>
<feGaussianBlur stdDeviation="150" result="effect1_foregroundBlur_891_13412"/>
<feTurbulence type="fractalNoise" baseFrequency="0.71428573131561279 0.71428573131561279" stitchTiles="stitch" numOctaves="3" result="noise" seed="1031" />
<feColorMatrix in="noise" type="luminanceToAlpha" result="alphaNoise" />
<feComponentTransfer in="alphaNoise" result="coloredNoise1">
<feFuncA type="discrete" tableValues="1 1 1 1 1 1 1 1 1 1 1 1 1 1 1 1 1 1 1 1 1 1 1 1 1 1 1 1 1 1 1 1 1 1 1 1 1 1 1 1 1 1 1 1 1 1 1 1 1 1 1 0 0 0 0 0 0 0 0 0 0 0 0 0 0 0 0 0 0 0 0 0 0 0 0 0 0 0 0 0 0 0 0 0 0 0 0 0 0 0 0 0 0 0 0 0 0 0 0 0 "/>
</feComponentTransfer>
<feComposite operator="in" in2="effect1_foregroundBlur_891_13412" in="coloredNoise1" result="noise1Clipped" />
<feFlood flood-color="rgba(255, 255, 255, 0.2)" result="color1Flood" />
<feComposite operator="in" in2="noise1Clipped" in="color1Flood" result="color1" />
<feMerge result="effect2_noise_891_13412">
<feMergeNode in="effect1_foregroundBlur_891_13412" />
<feMergeNode in="color1" />
</feMerge>
</filter>
<filter id="filter2_fn_891_13412" x="593.584" y="-1264.84" width="1612.13" height="1963.23" filterUnits="userSpaceOnUse" color-interpolation-filters="sRGB">
<feFlood flood-opacity="0" result="BackgroundImageFix"/>
<feBlend mode="normal" in="SourceGraphic" in2="BackgroundImageFix" result="shape"/>
<feGaussianBlur stdDeviation="150" result="effect1_foregroundBlur_891_13412"/>
<feTurbulence type="fractalNoise" baseFrequency="0.71428573131561279 0.71428573131561279" stitchTiles="stitch" numOctaves="3" result="noise" seed="1031" />
<feColorMatrix in="noise" type="luminanceToAlpha" result="alphaNoise" />
<feComponentTransfer in="alphaNoise" result="coloredNoise1">
<feFuncA type="discrete" tableValues="1 1 1 1 1 1 1 1 1 1 1 1 1 1 1 1 1 1 1 1 1 1 1 1 1 1 1 1 1 1 1 1 1 1 1 1 1 1 1 1 1 1 1 1 1 1 1 1 1 1 1 0 0 0 0 0 0 0 0 0 0 0 0 0 0 0 0 0 0 0 0 0 0 0 0 0 0 0 0 0 0 0 0 0 0 0 0 0 0 0 0 0 0 0 0 0 0 0 0 0 "/>
</feComponentTransfer>
<feComposite operator="in" in2="effect1_foregroundBlur_891_13412" in="coloredNoise1" result="noise1Clipped" />
<feFlood flood-color="rgba(255, 255, 255, 0.2)" result="color1Flood" />
<feComposite operator="in" in2="noise1Clipped" in="color1Flood" result="color1" />
<feMerge result="effect2_noise_891_13412">
<feMergeNode in="effect1_foregroundBlur_891_13412" />
<feMergeNode in="color1" />
</feMerge>
</filter>
</defs>
</svg>
