<svg viewBox="0 0 1690 2303.53" xmlns="http://www.w3.org/2000/svg" xmlns:xlink="http://www.w3.org/1999/xlink" width="1690.000977" height="2303.529297" fill="none" customFrame="#000000">
	<defs>
		<clipPath id="clipPath_0">
			<rect width="1690.001221" height="2303.529297" x="0.000000" y="0.000000" fill="rgb(255,255,255)" />
		</clipPath>
	</defs>
	<g opacity="0.100000001" customFrame="url(#clipPath_0)" style="mix-blend-mode:plus-darker">
		<rect id="Logo BG" width="1690.001221" height="2303.529297" x="0.000000" y="0.000000" />
		<path id="Vector" d="M469.826 2303.53L436.027 2279.87C648.961 1979.06 817.956 1585.3 846.686 1321.67C861.895 1189.85 851.756 1100.28 843.306 1019.17C834.856 934.669 826.406 862.001 850.066 767.363L890.624 777.503C870.345 867.07 875.415 936.359 883.865 1017.48C892.314 1098.59 902.454 1189.85 887.245 1328.43C858.515 1597.13 687.83 1997.65 469.826 2303.53Z" fill="rgb(208.594,210.308,216.505)" fill-rule="nonzero" />
		<path id="Vector" d="M654.006 2200.17C424.173 2103.84 231.518 1980.47 96.3223 1846.97L125.051 1818.24C256.868 1948.36 444.452 2066.66 669.216 2162.99L654.006 2200.17Z" fill="rgb(208.594,210.308,216.505)" fill-rule="nonzero" />
		<path id="Vector" d="M916.002 2002.57C900.792 2002.57 887.272 2002.57 873.753 2000.88C789.255 1992.43 726.727 1958.63 686.168 1904.55L672.648 1885.96L692.928 1874.13C731.797 1853.86 774.046 1830.2 816.294 1811.61C817.984 1779.5 833.194 1750.77 856.853 1723.73C949.801 1634.16 1198.22 1602.05 1640.99 1622.33L1690 1624.02L1654.51 1657.82C1436.51 1860.62 1128.94 2002.57 916.002 2002.57ZM733.487 1897.79C767.286 1933.28 814.604 1953.56 875.443 1960.32C1066.41 1978.91 1363.84 1852.17 1586.91 1661.2C1196.53 1645.99 961.63 1678.1 883.892 1754.15C872.063 1765.98 865.303 1776.12 860.233 1789.64C953.18 1750.77 1047.82 1722.04 1139.08 1723.73L1139.08 1764.29C1007.26 1762.6 855.163 1831.89 733.487 1897.79Z" fill="rgb(208.594,210.308,216.505)" fill-rule="nonzero" />
		<path id="Vector" d="M917.635 1637.75C887.215 1637.75 856.796 1636.06 826.377 1630.99L792.578 1625.92L811.168 1598.88C948.054 1402.84 1118.74 1308.21 1333.36 1308.21C1397.58 1308.21 1466.87 1318.35 1539.54 1335.25L1580.1 1345.39L1547.99 1370.74C1326.6 1549.87 1118.74 1637.75 917.635 1637.75ZM866.936 1593.81C1066.35 1610.71 1267.45 1534.66 1488.84 1363.98C1433.07 1352.15 1382.37 1347.08 1333.36 1347.08C1145.78 1348.77 991.992 1429.88 866.936 1593.81Z" fill="rgb(208.594,210.308,216.505)" fill-rule="nonzero" />
		<path id="Vector" d="M789.207 1877.54L691.19 1875.85C410.658 1872.47 185.895 1723.76 0 1421.26L35.489 1399.29C187.585 1646.02 365.03 1787.97 579.653 1825.15C275.462 1664.61 94.6373 1458.43 16.8995 1176.21L57.4584 1164.38C140.266 1461.81 343.06 1674.75 699.64 1835.29L789.207 1877.54Z" fill="rgb(208.594,210.308,216.505)" fill-rule="nonzero" />
		<path id="Vector" d="M604.926 1744.08C539.018 1451.72 336.224 1313.14 146.949 1211.75L165.539 1174.57C351.433 1270.89 572.817 1422.99 643.795 1732.25L604.926 1744.08Z" fill="rgb(208.594,210.308,216.505)" fill-rule="nonzero" />
		<path id="Vector" d="M845.01 1554.81L804.452 1529.46C520.54 1346.94 332.955 1073.17 250.148 716.591L240.008 672.652L280.567 692.932C694.605 909.246 779.102 1203.3 836.561 1507.49L845.01 1554.81ZM300.846 752.08C381.964 1057.96 544.199 1299.62 784.172 1466.93C731.784 1201.61 643.906 946.424 300.846 752.08Z" fill="rgb(208.594,210.308,216.505)" fill-rule="nonzero" />
		<path id="Vector" d="M880.426 1284.52L892.255 1242.27C981.823 909.349 1199.83 679.516 1541.2 556.15L1586.83 539.25L1568.24 583.189C1414.45 924.559 1209.97 1140.87 919.295 1265.93L880.426 1284.52ZM1509.09 613.608C1223.49 730.215 1032.52 931.319 944.644 1211.85C1188 1095.24 1370.51 904.28 1509.09 613.608Z" fill="rgb(208.594,210.308,216.505)" fill-rule="nonzero" />
		<path id="Vector" d="M916.012 1268.99L907.562 1228.43C1282.73 1149.01 1499.05 981.701 1605.51 689.339C1353.71 775.527 1169.5 863.404 1211.75 1066.2L1171.19 1074.65C1117.12 809.326 1404.41 714.689 1634.24 638.641L1673.11 625.121L1659.59 663.99C1521.01 1094.93 1169.51 1214.91 916.012 1268.99Z" fill="rgb(208.594,210.308,216.505)" fill-rule="nonzero" />
		<path id="Vector" d="M882.143 1150.86L865.244 1113.68C726.667 785.828 738.497 446.147 907.492 45.6287L926.082 0L946.361 45.6287C1108.6 442.767 1093.39 794.277 902.422 1115.37L882.143 1150.86ZM926.082 109.847C785.816 466.427 772.296 763.858 887.213 1059.6C1044.38 772.308 1057.9 461.357 926.082 109.847Z" fill="rgb(208.594,210.308,216.505)" fill-rule="nonzero" />
	</g>
</svg>
