<svg width="46" height="56" viewBox="0 0 46 56" fill="none" xmlns="http://www.w3.org/2000/svg">
<path d="M14.4314 27.9993V24.3631C14.4314 24.0014 14.5739 23.6546 14.8276 23.3988C15.0814 23.1431 15.4255 22.9995 15.7843 22.9995C16.1431 22.9995 16.4873 23.1431 16.741 23.3988C16.9947 23.6546 17.1373 24.0014 17.1373 24.3631V27.9993C17.1373 28.361 16.9947 28.7078 16.741 28.9635C16.4873 29.2193 16.1431 29.3629 15.7843 29.3629C15.4255 29.3629 15.0814 29.2193 14.8276 28.9635C14.5739 28.7078 14.4314 28.361 14.4314 27.9993ZM23 29.3629C23.3588 29.3629 23.7029 29.2193 23.9567 28.9635C24.2104 28.7078 24.3529 28.361 24.3529 27.9993V22.5449C24.3529 22.1833 24.2104 21.8364 23.9567 21.5807C23.7029 21.325 23.3588 21.1813 23 21.1813C22.6412 21.1813 22.2971 21.325 22.0433 21.5807C21.7896 21.8364 21.6471 22.1833 21.6471 22.5449V27.9993C21.6471 28.361 21.7896 28.7078 22.0433 28.9635C22.2971 29.2193 22.6412 29.3629 23 29.3629ZM30.2157 29.3629C30.5745 29.3629 30.9186 29.2193 31.1724 28.9635C31.4261 28.7078 31.5686 28.361 31.5686 27.9993V20.7268C31.5686 20.3651 31.4261 20.0183 31.1724 19.7626C30.9186 19.5069 30.5745 19.3632 30.2157 19.3632C29.8569 19.3632 29.5127 19.5069 29.259 19.7626C29.0053 20.0183 28.8627 20.3651 28.8627 20.7268V27.9993C28.8627 28.361 29.0053 28.7078 29.259 28.9635C29.5127 29.2193 29.8569 29.3629 30.2157 29.3629ZM42.3922 12.9997V35.7264H44.6471C45.0059 35.7264 45.35 35.87 45.6037 36.1258C45.8575 36.3815 46 36.7283 46 37.09C46 37.4516 45.8575 37.7985 45.6037 38.0542C45.35 38.3099 45.0059 38.4536 44.6471 38.4536H24.3529V43.1898C25.5049 43.5189 26.4999 44.2569 27.1543 45.2675C27.8087 46.2781 28.0784 47.4932 27.9135 48.6885C27.7487 49.8838 27.1605 50.9787 26.2574 51.7711C25.3543 52.5635 24.1974 53 23 53C21.8026 53 20.6457 52.5635 19.7426 51.7711C18.8395 50.9787 18.2513 49.8838 18.0865 48.6885C17.9216 47.4932 18.1913 46.2781 18.8457 45.2675C19.5001 44.2569 20.4951 43.5189 21.6471 43.1898V38.4536H1.35294C0.994119 38.4536 0.649993 38.3099 0.396267 38.0542C0.142541 37.7985 0 37.4516 0 37.09C0 36.7283 0.142541 36.3815 0.396267 36.1258C0.649993 35.87 0.994119 35.7264 1.35294 35.7264H3.60784V12.9997H3.15686C2.31961 12.9997 1.51665 12.6645 0.924624 12.0678C0.332597 11.4711 0 10.6618 0 9.818V6.18173C0 5.33788 0.332597 4.5286 0.924624 3.93191C1.51665 3.33522 2.31961 3 3.15686 3H42.8431C43.6804 3 44.4833 3.33522 45.0754 3.93191C45.6674 4.5286 46 5.33788 46 6.18173V9.818C46 10.6618 45.6674 11.4711 45.0754 12.0678C44.4833 12.6645 43.6804 12.9997 42.8431 12.9997H42.3922ZM23 45.7261C22.554 45.7261 22.1181 45.8594 21.7472 46.1091C21.3764 46.3588 21.0874 46.7138 20.9167 47.1291C20.7461 47.5443 20.7014 48.0013 20.7884 48.4421C20.8754 48.883 21.0902 49.288 21.4055 49.6058C21.7209 49.9236 22.1227 50.1401 22.5601 50.2278C22.9975 50.3155 23.4509 50.2705 23.8629 50.0984C24.2749 49.9264 24.6271 49.6351 24.8749 49.2614C25.1227 48.8877 25.2549 48.4483 25.2549 47.9988C25.2549 47.396 25.0173 46.818 24.5945 46.3918C24.1716 45.9655 23.598 45.7261 23 45.7261ZM3.15686 10.2725H42.8431C42.9627 10.2725 43.0775 10.2246 43.162 10.1394C43.2466 10.0542 43.2941 9.93855 43.2941 9.818V6.18173C43.2941 6.06118 43.2466 5.94557 43.162 5.86033C43.0775 5.77509 42.9627 5.7272 42.8431 5.7272H3.15686C3.03726 5.7272 2.92255 5.77509 2.83797 5.86033C2.7534 5.94557 2.70588 6.06118 2.70588 6.18173V9.818C2.70588 9.93855 2.7534 10.0542 2.83797 10.1394C2.92255 10.2246 3.03726 10.2725 3.15686 10.2725ZM39.6863 12.9997H6.31373V35.7264H39.6863V12.9997Z" fill="#A7AF39"/>
</svg>
