<svg viewBox="0 0 40 56" xmlns="http://www.w3.org/2000/svg" xmlns:xlink="http://www.w3.org/1999/xlink" width="40.000000" height="56.000000" fill="none" customFrame="#000000">
	<rect id="Frame 413" width="40.000000" height="56.000000" x="0.000000" y="0.000000" />
	<path id="Union" d="M22.6663 3C24.9372 3.00005 26.6768 4.92328 26.445 7.08851C31.5051 9.24047 35.2151 13.8485 35.996 19.3703C37.2276 20.1027 38.05 21.4258 38.05 22.9364C38.05 25.1256 36.3226 26.9195 34.1257 27.0937C33.5612 31.2646 31.1031 34.8512 27.6223 37.0066C34.3207 39.8734 39 46.4027 39 53.9991L38.9991 54L36.1509 54L36.15 53.9991C36.15 46.5613 30.8723 40.3279 23.7731 38.6692C22.5712 38.9905 21.3064 39.1636 20 39.1636C18.6933 39.1636 17.4281 38.9907 16.226 38.6692C9.12719 40.3282 3.85 46.5616 3.85 53.9991L3.84907 54L1.00093 54L1 53.9991C1 46.4031 5.67889 39.8745 12.3768 37.0075C8.89606 34.8521 6.43786 31.2645 5.87339 27.0937C3.67691 26.9191 1.95 25.1253 1.95 22.9364C1.95 21.426 2.77186 20.1028 4.00308 19.3703C4.78389 13.8487 8.49435 9.24067 13.5541 7.08851C13.3223 4.92345 15.063 3.00024 17.3337 3L22.6663 3ZM8.75864 27.1091C9.66326 32.3717 14.3514 36.3818 20 36.3818C25.6486 36.3818 30.3367 32.3717 31.2414 27.1091L8.75864 27.1091ZM6.225 21.5455C5.43799 21.5455 4.8 22.1682 4.8 22.9364C4.8 23.7045 5.43799 24.3273 6.225 24.3273L33.775 24.3273C34.562 24.3273 35.2 23.7045 35.2 22.9364C35.2 22.1682 34.562 21.5455 33.775 21.5455L6.225 21.5455ZM25.225 13.8493C24.9025 15.6193 23.3263 16.9089 21.4844 16.9091L18.5156 16.9091C16.6739 16.9088 15.0974 15.6193 14.775 13.8493L14.0606 9.92919C12.5704 10.6565 11.2399 11.6481 10.1335 12.8423L12.3425 14.9984C12.8988 15.5416 12.8989 16.4221 12.3425 16.9652C11.786 17.5083 10.8839 17.5082 10.3274 16.9652L8.44043 15.1234C7.78594 16.2433 7.2962 17.4669 7.00615 18.7636L32.9938 18.7636C32.7038 17.4668 32.2133 16.2434 31.5586 15.1234L29.6726 16.9652C29.1161 17.5082 28.214 17.5083 27.6575 16.9652C27.1011 16.4221 27.1012 15.5416 27.6575 14.9984L29.8655 12.8423C28.759 11.6481 27.4287 10.6564 25.9384 9.92919L25.225 13.8493ZM17.3337 5.78182C16.7428 5.78207 16.2953 6.30327 16.3985 6.87118L17.5805 13.3621C17.661 13.8044 18.0554 14.1269 18.5156 14.1273L21.4844 14.1273L21.5697 14.1237C21.9927 14.0865 22.344 13.7769 22.4195 13.3621L23.6015 6.87118C23.6196 6.77128 23.6199 6.67302 23.6061 6.57869C23.6003 6.53833 23.5921 6.49876 23.5811 6.46007C23.5655 6.40608 23.5448 6.3541 23.5198 6.30431C23.5153 6.2952 23.5108 6.2861 23.5059 6.27715C23.4787 6.22704 23.4472 6.17934 23.4113 6.13498C23.2595 5.94763 23.0348 5.81685 22.7749 5.78816L22.6663 5.78182L17.3337 5.78182Z" fill="rgb(167,175,57)" fill-rule="nonzero" />
</svg>
